<svg xmlns="http://www.w3.org/2000/svg" width="24.456" height="24.458" viewBox="0 0 24.456 24.458">
  <g id="chat" transform="translate(-0.019)">
    <g id="Group_31" data-name="Group 31" transform="translate(0.019)">
      <path id="Path_22" data-name="Path 22" d="M20.886,3.583A12.226,12.226,0,0,0,2.825,20.027,4.679,4.679,0,0,1,.865,22.2,1.147,1.147,0,0,0,1.2,24.36a6.32,6.32,0,0,0,.967.072,7.3,7.3,0,0,0,4.3-1.427A12.225,12.225,0,0,0,20.886,3.583Zm-.988,16.3A10.83,10.83,0,0,1,6.754,21.573a.7.7,0,0,0-.848.109.23.23,0,0,0-.057.041,5.97,5.97,0,0,1-3.687,1.313H2.158a6.846,6.846,0,0,0,2.1-2.787.714.714,0,0,0,.036-.45.726.726,0,0,0-.171-.393,10.831,10.831,0,1,1,15.776.481Z" transform="translate(-0.019 0)"/>
      <circle id="Ellipse_53" data-name="Ellipse 53" cx="0.858" cy="0.858" r="0.858" transform="translate(11.364 11.371)"/>
      <circle id="Ellipse_54" data-name="Ellipse 54" cx="0.858" cy="0.858" r="0.858" transform="translate(15.79 11.371)"/>
      <circle id="Ellipse_55" data-name="Ellipse 55" cx="0.858" cy="0.858" r="0.858" transform="translate(6.937 11.371)"/>
    </g>
  </g>
</svg>
