<svg xmlns="http://www.w3.org/2000/svg" width="26.521" height="22.868" viewBox="0 0 26.521 22.868">
  <g id="home" transform="translate(0 -17.319)">
    <path id="Path_23" data-name="Path 23" d="M53.06,135.551a.791.791,0,0,0-.791.791v8.027H36.216v-8.027a.791.791,0,1,0-1.582,0v8.817a.791.791,0,0,0,.791.791H53.06a.791.791,0,0,0,.791-.791v-8.817A.791.791,0,0,0,53.06,135.551Z" transform="translate(-30.981 -105.763)" fill="#ff9f2c"/>
    <path id="Path_24" data-name="Path 24" d="M26.29,30.019,13.819,17.55a.791.791,0,0,0-1.119,0L.232,30.019a.791.791,0,0,0,1.119,1.119l11.91-11.91,11.911,11.91a.791.791,0,1,0,1.118-1.119Z" transform="translate(0)" fill="#ff9f2c"/>
  </g>
</svg>
