<svg id="mortarboard_1_" data-name="mortarboard (1)" xmlns="http://www.w3.org/2000/svg" width="29.136" height="21.777" viewBox="0 0 29.136 21.777">
  <g id="Group_430" data-name="Group 430" transform="translate(0 0)">
    <path id="Path_280" data-name="Path 280" d="M.336,71.707,14.3,64.726a.607.607,0,0,1,.543,0L28.8,71.707a.607.607,0,0,1,0,1.086L24.179,75.1v4.639c0,2.865-4.222,5.109-9.611,5.109s-9.611-2.244-9.611-5.109V75.1L3.344,74.3v4.427a1.887,1.887,0,0,1,.2,3.491l1.289,3.4a.607.607,0,0,1-.568.822H1.205a.607.607,0,0,1-.568-.822l1.289-3.4a1.887,1.887,0,0,1,.2-3.491V73.69l-1.795-.9a.607.607,0,0,1,0-1.086ZM8.473,82.383a13.967,13.967,0,0,0,6.1,1.255,13.967,13.967,0,0,0,6.1-1.255c1.463-.731,2.3-1.694,2.3-2.64V75.711L14.84,79.773a.607.607,0,0,1-.543,0L6.171,75.711v4.032h0C6.171,80.689,7.01,81.651,8.473,82.383ZM3.39,85.225,2.737,83.5l-.652,1.722ZM2.064,80.511a.673.673,0,1,0,.676-.673H2.734A.674.674,0,0,0,2.064,80.511Zm.8-7.813,11.653-1.052a.607.607,0,1,1,.109,1.209l-9.7.876,9.643,4.822,12.6-6.3-12.6-6.3-12.6,6.3Z" transform="translate(0 -64.662)"/>
  </g>
</svg>
