<svg xmlns="http://www.w3.org/2000/svg" xmlns:xlink="http://www.w3.org/1999/xlink" width="18.876" height="18.876" viewBox="0 0 18.876 18.876"><defs><style>.a{fill:url(#a);}</style><linearGradient id="a" x1="0.5" x2="0.5" y2="1" gradientUnits="objectBoundingBox"><stop offset="0" stop-color="#ff802c"/><stop offset="1" stop-color="#ffb02c"/></linearGradient></defs><g transform="translate(-79.196 -66.746) rotate(-45)"><path class="a" d="M17.321,118.084a.285.285,0,0,1,.285.285v1.825a.9.9,0,0,1-.894.894H.894A.9.9,0,0,1,0,120.195v-1.825a.285.285,0,0,1,.285-.285,1.54,1.54,0,1,0,0-3.08A.285.285,0,0,1,0,114.719v-1.825A.9.9,0,0,1,.894,112H16.713a.9.9,0,0,1,.894.894v1.825a.285.285,0,0,1-.285.285,1.54,1.54,0,1,0,0,3.08Zm-2.11-1.54a2.114,2.114,0,0,1,1.825-2.091v-1.559a.324.324,0,0,0-.323-.323H13.651c0,.006,0,.013,0,.019v.608a.285.285,0,1,1-.57,0v-.608c0-.006,0-.013,0-.019H.894a.324.324,0,0,0-.323.323v1.559a2.111,2.111,0,0,1,0,4.183v1.559a.324.324,0,0,0,.323.323H13.082c0-.006,0-.013,0-.019v-.608a.285.285,0,1,1,.57,0v.608c0,.006,0,.013,0,.019h3.062a.324.324,0,0,0,.323-.323v-1.559A2.114,2.114,0,0,1,15.211,116.544Z" transform="translate(0 0)"/><path class="a" d="M344.285,217.179a.285.285,0,0,1-.285-.285v-.608a.285.285,0,1,1,.57,0v.608A.285.285,0,0,1,344.285,217.179Z" transform="translate(-330.919 -100.045)"/><path class="a" d="M344.285,169.179a.285.285,0,0,1-.285-.285v-.608a.285.285,0,1,1,.57,0v.608A.285.285,0,0,1,344.285,169.179Z" transform="translate(-330.919 -50.22)"/><path class="a" d="M344.285,265.179a.285.285,0,0,1-.285-.285v-.608a.285.285,0,1,1,.57,0v.608A.285.285,0,0,1,344.285,265.179Z" transform="translate(-330.919 -149.871)"/><path class="a" d="M103.586,165.438h-7a.59.59,0,0,1-.589-.589v-4.259a.59.59,0,0,1,.589-.589h7a.59.59,0,0,1,.589.589v4.259A.59.59,0,0,1,103.586,165.438Zm.019-4.848a.019.019,0,0,0-.019-.019h-7a.019.019,0,0,0-.019.019v4.259a.019.019,0,0,0,.019.019h7a.019.019,0,0,0,.019-.019Z" transform="translate(-92.349 -46.175)"/><path class="a" d="M140.848,208.57h-4.563a.285.285,0,1,1,0-.57h4.563a.285.285,0,1,1,0,.57Z" transform="translate(-130.828 -91.133)"/><path class="a" d="M137.2,240.57h-.913a.285.285,0,1,1,0-.57h.913a.285.285,0,1,1,0,.57Z" transform="translate(-130.828 -124.349)"/><path class="a" d="M194.719,240.57h-2.434a.285.285,0,1,1,0-.57h2.434a.285.285,0,1,1,0,.57Z" transform="translate(-184.699 -124.349)"/></g></svg>