<svg xmlns="http://www.w3.org/2000/svg" xmlns:xlink="http://www.w3.org/1999/xlink" width="17.942" height="20.08" viewBox="0 0 17.942 20.08">
  <defs>
    <linearGradient id="linear-gradient" x1="0.5" x2="0.5" y2="1" gradientUnits="objectBoundingBox">
      <stop offset="0" stop-color="#ff802c"/>
      <stop offset="1" stop-color="#ffb02c"/>
    </linearGradient>
  </defs>
  <g id="alarm" transform="translate(-0.416 0)">
    <g id="_002---Alarm" data-name="002---Alarm" transform="translate(0.416 0)">
      <path id="Shape" d="M7.674,46H6.335a.335.335,0,0,0,0,.67H7.674a.335.335,0,0,0,0-.67Z" transform="translate(-4.13 -30.598)" fill="url(#linear-gradient)"/>
      <path id="Shape-2" data-name="Shape" d="M14,46.335a.335.335,0,0,0,.335.335H23.04a.335.335,0,1,0,0-.67H14.335A.335.335,0,0,0,14,46.335Z" transform="translate(-9.452 -30.598)" fill="url(#linear-gradient)"/>
      <path id="Shape-3" data-name="Shape" d="M12.179,14.441a.335.335,0,1,0-.419-.522A4.667,4.667,0,0,0,10,17.577a.335.335,0,1,0,.67,0A4,4,0,0,1,12.179,14.441Z" transform="translate(-6.791 -9.207)" fill="url(#linear-gradient)"/>
      <path id="Shape-4" data-name="Shape" d="M13,0a5.317,5.317,0,0,0-2.789.792A2.65,2.65,0,0,0,8.312,0,2.682,2.682,0,0,0,5.634,2.679a2.645,2.645,0,0,0,.016.293,6.027,6.027,0,0,0-3.365,5.4v3.683a5.982,5.982,0,0,1-1.6,3.666,1.009,1.009,0,0,0-.181,1.1.986.986,0,0,0,.914.593h3.9a3.013,3.013,0,0,0,5.987,0h3.9a.986.986,0,0,0,.914-.593,1.01,1.01,0,0,0-.181-1.1,6.027,6.027,0,0,1-1.6-3.665V10.538A5.353,5.353,0,0,0,13,0ZM6.3,2.679A2.011,2.011,0,0,1,8.312.67a1.983,1.983,0,0,1,1.336.515A5.391,5.391,0,0,0,8.567,2.353c-.085,0-.169-.01-.254-.01A5.986,5.986,0,0,0,6.3,2.695V2.679ZM8.312,19.42a2.347,2.347,0,0,1-2.32-2.009h4.64A2.347,2.347,0,0,1,8.312,19.42Zm7.132-3.25a.346.346,0,0,1,.064.378.318.318,0,0,1-.3.194H1.418a.318.318,0,0,1-.3-.194.345.345,0,0,1,.064-.375,6.587,6.587,0,0,0,1.775-4.118V8.371A5.361,5.361,0,0,1,8.187,3.02a5.331,5.331,0,0,0,5.482,7.648v1.386a6.585,6.585,0,0,0,1.775,4.116ZM13,10.045a4.688,4.688,0,1,1,4.688-4.688A4.688,4.688,0,0,1,13,10.045Z" transform="translate(-0.416 0)" fill="url(#linear-gradient)"/>
      <path id="Shape-5" data-name="Shape" d="M35.027,4a1.5,1.5,0,0,0-1.481,1.708l.386,2.7a1.107,1.107,0,0,0,2.191,0l.386-2.7A1.5,1.5,0,0,0,35.027,4Zm.818,1.613-.385,2.7a.437.437,0,0,1-.866,0l-.385-2.7a.827.827,0,1,1,1.637,0Z" transform="translate(-22.444 -2.661)" fill="url(#linear-gradient)"/>
      <path id="Shape-6" data-name="Shape" d="M36,22a1,1,0,1,0,1,1A1,1,0,0,0,36,22Zm0,1.339A.335.335,0,1,1,36.339,23,.335.335,0,0,1,36,23.339Z" transform="translate(-23.421 -14.634)" fill="url(#linear-gradient)"/>
    </g>
  </g>
</svg>
