<svg xmlns="http://www.w3.org/2000/svg" xmlns:xlink="http://www.w3.org/1999/xlink" width="7.366" height="10.184" viewBox="0 0 7.366 10.184">
  <defs>
    <linearGradient id="linear-gradient" x1="0.5" x2="0.5" y2="1" gradientUnits="objectBoundingBox">
      <stop offset="0" stop-color="#ff802c"/>
      <stop offset="1" stop-color="#ffb02c"/>
    </linearGradient>
  </defs>
  <g id="cake-pop" transform="translate(-70.824)">
    <path id="Path_284" data-name="Path 284" d="M77.223,4.811a1.189,1.189,0,0,0-1.018-1.8h-1.4V2.46a.9.9,0,0,0,.6-.844,2.314,2.314,0,0,0-.684-1.4L74.507,0,74.3.211a2.314,2.314,0,0,0-.684,1.4.9.9,0,0,0,.6.844v.549h-1.4a1.189,1.189,0,0,0-1.018,1.8,1.191,1.191,0,0,0-.967,1.168V6a1.191,1.191,0,0,0,.667,1.068l.414,3.116h5.2l.414-3.116A1.191,1.191,0,0,0,78.19,6V5.98a1.191,1.191,0,0,0-.967-1.168ZM74.507.888a1.386,1.386,0,0,1,.3.728.3.3,0,1,1-.6,0,1.386,1.386,0,0,1,.3-.728Zm-1.7,2.718H76.2a.592.592,0,1,1,0,1.185H72.81a.592.592,0,1,1,0-1.185Zm-.7,3.584h.726l.159,2.4h-.566Zm3.471,0-.159,2.4h-.616v-2.4Zm-1.372,2.4h-.616l-.159-2.4h.775Zm2.377,0H76.02l.159-2.4H76.9ZM77.593,6A.593.593,0,0,1,77,6.592H72.013A.593.593,0,0,1,71.421,6V5.98a.593.593,0,0,1,.592-.592H77a.593.593,0,0,1,.592.592Z" transform="translate(0)" fill="url(#linear-gradient)"/>
  </g>
</svg>
