<svg xmlns="http://www.w3.org/2000/svg" width="21.362" height="23" viewBox="0 0 21.362 23">
  <g id="date" transform="translate(-12.885)">
    <g id="Group_409" data-name="Group 409" transform="translate(12.885)">
      <g id="Group_408" data-name="Group 408" transform="translate(0)">
        <path id="Path_258" data-name="Path 258" d="M32.657,2.783H30.909V1.589A1.589,1.589,0,0,0,29.319,0h-.064a1.589,1.589,0,0,0-1.589,1.589V2.783h-8.2V1.589A1.589,1.589,0,0,0,17.876,0h-.064a1.589,1.589,0,0,0-1.589,1.589V2.783H14.474a1.589,1.589,0,0,0-1.589,1.589V21.411A1.589,1.589,0,0,0,14.474,23H32.657a1.589,1.589,0,0,0,1.589-1.589V4.372A1.589,1.589,0,0,0,32.657,2.783ZM31.576,20.489H15.555V7.583H31.576Z" transform="translate(-12.885)" fill="#ffb02c"/>
        <path id="Path_259" data-name="Path 259" d="M85.39,162.91h2.765a.254.254,0,0,0,.254-.254V159.89a.254.254,0,0,0-.254-.254H85.39a.254.254,0,0,0-.254.254v2.765A.254.254,0,0,0,85.39,162.91Z" transform="translate(-80.543 -149.487)" fill="#ffb02c"/>
        <path id="Path_260" data-name="Path 260" d="M155.39,162.91h2.765a.254.254,0,0,0,.254-.254V159.89a.254.254,0,0,0-.254-.254H155.39a.254.254,0,0,0-.254.254v2.765A.254.254,0,0,0,155.39,162.91Z" transform="translate(-146.092 -149.487)" fill="#ffb02c"/>
        <path id="Path_261" data-name="Path 261" d="M225.39,162.91h2.765a.254.254,0,0,0,.254-.254V159.89a.254.254,0,0,0-.254-.254H225.39a.254.254,0,0,0-.254.254v2.765A.254.254,0,0,0,225.39,162.91Z" transform="translate(-211.642 -149.487)" fill="#ffb02c"/>
        <path id="Path_262" data-name="Path 262" d="M85.39,232.91h2.765a.254.254,0,0,0,.254-.254V229.89a.254.254,0,0,0-.254-.254H85.39a.254.254,0,0,0-.254.254v2.765A.254.254,0,0,0,85.39,232.91Z" transform="translate(-80.543 -215.037)" fill="#ffb02c"/>
        <path id="Path_263" data-name="Path 263" d="M155.39,232.91h2.765a.254.254,0,0,0,.254-.254V229.89a.254.254,0,0,0-.254-.254H155.39a.254.254,0,0,0-.254.254v2.765A.254.254,0,0,0,155.39,232.91Z" transform="translate(-146.092 -215.037)" fill="#ffb02c"/>
        <path id="Path_264" data-name="Path 264" d="M225.39,232.91h2.765a.254.254,0,0,0,.254-.254V229.89a.254.254,0,0,0-.254-.254H225.39a.254.254,0,0,0-.254.254v2.765A.254.254,0,0,0,225.39,232.91Z" transform="translate(-211.642 -215.037)" fill="#ffb02c"/>
      </g>
    </g>
  </g>
</svg>
