<svg xmlns="http://www.w3.org/2000/svg" xmlns:xlink="http://www.w3.org/1999/xlink" width="17" height="17" viewBox="0 0 17 17"><defs><style>.a{fill:url(#a);}</style><linearGradient id="a" x1="0.5" x2="0.5" y2="1" gradientUnits="objectBoundingBox"><stop offset="0" stop-color="#ff802c"/><stop offset="1" stop-color="#ffb02c"/></linearGradient></defs><g transform="translate(0 -0.003)"><g transform="translate(0 2.244)"><path class="a" d="M13.163,81.669,11.38,79.885a.332.332,0,0,0-.235-.1h-.964a4.444,4.444,0,0,1-1.552-.282l.574-.385a1.044,1.044,0,0,0-.584-1.911H8.6l1.322-1.322a1.03,1.03,0,0,0-.335-1.68A1.029,1.029,0,0,0,8.182,72.8a1.03,1.03,0,0,0-1.68-.335l-.475.475a1.029,1.029,0,0,0-1.665-.3l-.21.21L3.3,72a.638.638,0,0,1,.853-.946l.829.829a.332.332,0,0,0,.47-.47l-1.43-1.43a.638.638,0,0,1,.9-.9l2.5,2.51a.332.332,0,0,0,.47-.47L5.99,69.21a.638.638,0,0,1,.946-.853l.7.7a.332.332,0,0,0,.47-.47l-.7-.7a1.3,1.3,0,0,0-2.177.585,1.3,1.3,0,0,0-1.816,1.816,1.3,1.3,0,0,0-.665,2.089,1.3,1.3,0,0,0-.572,2.174l.148.148a3.719,3.719,0,0,0-.864,2.4v.55L.1,79.011a.332.332,0,1,0,.47.47l1.46-1.46a.332.332,0,0,0,.1-.235V77.1a3.063,3.063,0,0,1,.9-2.185l1.648-1.648h0l.158-.158a.365.365,0,0,1,.543.486l-.439.439a.332.332,0,0,0,0,.47h0a.332.332,0,0,0,.47,0l1.564-1.568a.365.365,0,0,1,.543.485l-1.593,1.6a.332.332,0,1,0,.47.47L8.444,73.43a.365.365,0,1,1,.516.516L6.9,76a.332.332,0,1,0,.47.47l1.6-1.593a.365.365,0,0,1,.485.543L7.215,77.661a.435.435,0,0,0,.533.679l.677-.411a.38.38,0,0,1,.409.641L7.267,79.621a3.073,3.073,0,0,1-1.717.522h0l-1.064,0h0a.332.332,0,0,0-.235.1L2.786,81.7a.332.332,0,1,0,.47.47l1.362-1.362h.932a3.735,3.735,0,0,0,2.087-.635l.336-.225a5.111,5.111,0,0,0,2.21.506h.826l1.686,1.686a.332.332,0,1,0,.47-.47Zm-9.7-8.134h0l-.684.684-.137-.137a.638.638,0,0,1,.853-.946l.183.183Z" transform="translate(0 -67.507)"/></g><g transform="translate(16.336 12.569)"><path class="a" d="M492.567,378.549a.332.332,0,1,0,.1.235A.333.333,0,0,0,492.567,378.549Z" transform="translate(-492 -378.452)"/></g><g transform="translate(9.102 4.033)"><path class="a" d="M281.028,129.127l-.793-.793,0-1.342a5.065,5.065,0,0,0-.861-2.838l-1.461-2.179a1.323,1.323,0,0,0-1.858-.347,1.327,1.327,0,0,0-.5,1.483l-.868-.868a.332.332,0,0,0-.47.47l1.864,1.864a.475.475,0,0,0,.742-.582l-.571-.942a.659.659,0,0,1,1.111-.709l1.461,2.179a4.4,4.4,0,0,1,.749,2.467l0,1.48a.332.332,0,0,0,.1.235l.891.891a.332.332,0,1,0,.47-.47Z" transform="translate(-274.119 -121.388)"/></g><g transform="translate(8.321 4.011)"><path class="a" d="M251.177,120.809a.331.331,0,1,0,.1.235A.333.333,0,0,0,251.177,120.809Z" transform="translate(-250.61 -120.712)"/></g><g transform="translate(10.89 8.694)"><path class="a" d="M329.054,262.32a.332.332,0,0,0-.47-.47l-.145.145a1.592,1.592,0,0,0,0,2.249.332.332,0,0,0,.47-.47.927.927,0,0,1,0-1.31Z" transform="translate(-327.974 -261.753)"/></g><g transform="translate(13.504 1.796)"><path class="a" d="M409.054,54a1.132,1.132,0,0,1-1.192,0,1.164,1.164,0,0,0-1.152,1.173,2.164,2.164,0,0,0,.806,1.346,8.455,8.455,0,0,0,.74.651.332.332,0,0,0,.4,0,8.467,8.467,0,0,0,.74-.651,2.165,2.165,0,0,0,.806-1.346A1.164,1.164,0,0,0,409.054,54Zm-.6,2.482c-.555-.461-1.084-1.049-1.084-1.309a.5.5,0,0,1,.488-.509.475.475,0,0,1,.352.156.332.332,0,0,0,.488,0,.475.475,0,0,1,.352-.156.5.5,0,0,1,.488.509C409.542,55.434,409.013,56.022,408.458,56.484Z" transform="translate(-406.71 -54.002)"/></g><g transform="translate(0 0.003)"><g transform="translate(0 0)"><path class="a" d="M2.344,0a1.14,1.14,0,0,0-.6.169A1.14,1.14,0,0,0,1.152,0,1.164,1.164,0,0,0,0,1.176,2.165,2.165,0,0,0,.806,2.522a8.468,8.468,0,0,0,.74.651.332.332,0,0,0,.4,0,8.465,8.465,0,0,0,.74-.651A2.165,2.165,0,0,0,3.5,1.176,1.164,1.164,0,0,0,2.344,0Zm-.6,2.482C1.193,2.024.664,1.436.664,1.176A.5.5,0,0,1,1.152.667.475.475,0,0,1,1.5.823a.332.332,0,0,0,.488,0A.475.475,0,0,1,2.344.667a.5.5,0,0,1,.488.509C2.832,1.435,2.3,2.023,1.748,2.485Z" transform="translate(0 -0.003)"/></g></g></g></svg>