<svg id="clock" xmlns="http://www.w3.org/2000/svg" xmlns:xlink="http://www.w3.org/1999/xlink" width="15.475" height="15.475" viewBox="0 0 15.475 15.475">
  <defs>
    <linearGradient id="linear-gradient" x1="0.5" x2="0.5" y2="1" gradientUnits="objectBoundingBox">
      <stop offset="0" stop-color="#ff802c"/>
      <stop offset="1" stop-color="#ffb02c"/>
    </linearGradient>
  </defs>
  <path id="Path_100" data-name="Path 100" d="M7.737,0A7.746,7.746,0,0,0,0,7.737a.341.341,0,1,0,.683,0,7.041,7.041,0,1,1,.5,2.6.341.341,0,1,0-.634.252A7.738,7.738,0,1,0,7.737,0Z" fill="url(#linear-gradient)"/>
  <path id="Path_101" data-name="Path 101" d="M45.4,39.455A5.941,5.941,0,1,0,49.163,40.8a.341.341,0,0,0-.433.528A5.259,5.259,0,1,1,45.4,40.138a.341.341,0,1,0,0-.683Z" transform="translate(-37.659 -37.659)" fill="url(#linear-gradient)"/>
  <path id="Path_102" data-name="Path 102" d="M162.841,77.885a.341.341,0,0,0-.341.341v3.851a.341.341,0,0,0,.1.241l1.488,1.488a.341.341,0,0,0,.483-.483l-1.388-1.388v-3.71A.341.341,0,0,0,162.841,77.885Z" transform="translate(-155.104 -74.34)" fill="url(#linear-gradient)"/>
</svg>
