<svg xmlns="http://www.w3.org/2000/svg" width="26.681" height="30.311" viewBox="0 0 26.681 30.311">
  <g id="contact_1_" data-name="contact (1)" transform="translate(2.082)">
    <path id="Path_244" data-name="Path 244" d="M21,0H3.944A3.61,3.61,0,0,0,.336,3.608V5.167h-1.7a.722.722,0,0,0-.722.722.722.722,0,0,0,.722.722H.328v4.734H-1.36a.721.721,0,0,0-.722.722.722.722,0,0,0,.722.722H.328v4.734H-1.36a.722.722,0,0,0-.722.722.721.721,0,0,0,.722.722H.328V23.7H-1.36a.722.722,0,0,0-.722.722.722.722,0,0,0,.722.722H.328V26.7a3.61,3.61,0,0,0,3.608,3.608H20.99A3.61,3.61,0,0,0,24.6,26.7V3.608A3.6,3.6,0,0,0,21,0Zm2.165,26.7A2.172,2.172,0,0,1,21,28.868H3.944A2.171,2.171,0,0,1,1.779,26.7V25.144H3.468a.722.722,0,0,0,0-1.443H1.779V18.966H3.468a.722.722,0,1,0,0-1.443H1.779V12.788H3.468a.722.722,0,0,0,0-1.443H1.779V6.611H3.468a.722.722,0,1,0,0-1.443H1.779V3.608A2.171,2.171,0,0,1,3.944,1.443H21a2.172,2.172,0,0,1,2.165,2.165Zm0,0" fill="#fff"/>
    <path id="Path_245" data-name="Path 245" d="M192.793,144.625a3.5,3.5,0,1,0-3.5-3.5A3.5,3.5,0,0,0,192.793,144.625Zm0-5.564a2.057,2.057,0,1,1-2.057,2.057A2.057,2.057,0,0,1,192.793,139.061Zm0,0" transform="translate(-180.326 -129.679)" fill="#fff"/>
    <path id="Path_246" data-name="Path 246" d="M162.519,279a5.392,5.392,0,0,0-5.355,5.543.724.724,0,0,0,.722.722h9.267a.724.724,0,0,0,.722-.722A5.392,5.392,0,0,0,162.519,279Zm-3.854,4.821a3.888,3.888,0,0,1,7.708,0Zm0,0" transform="translate(-150.052 -262.892)" fill="#fff"/>
  </g>
</svg>
