<svg xmlns="http://www.w3.org/2000/svg" xmlns:xlink="http://www.w3.org/1999/xlink" width="17.638" height="11.477" viewBox="0 0 17.638 11.477"><defs><style>.a{fill:url(#a);}</style><linearGradient id="a" x1="0.5" x2="0.5" y2="1" gradientUnits="objectBoundingBox"><stop offset="0" stop-color="#ff802c"/><stop offset="1" stop-color="#ffb02c"/></linearGradient></defs><g transform="translate(0 -63.6)"><g transform="translate(0 63.6)"><path class="a" d="M14.925,63.6H2.712A2.521,2.521,0,0,0,0,66.312v6.052a2.522,2.522,0,0,0,2.712,2.712H14.925a2.522,2.522,0,0,0,2.712-2.712V66.312A2.518,2.518,0,0,0,14.925,63.6Zm-12.213.577,12.213.008a2.441,2.441,0,0,1,1.341.387L8.819,69.4,7.056,68.234a.287.287,0,0,0-.108-.062L1.364,64.565A2.224,2.224,0,0,1,2.712,64.177ZM.585,72.365h0V66.312a2.457,2.457,0,0,1,.387-1.317L6.4,68.513,1.182,73.938A2.29,2.29,0,0,1,.585,72.365Zm14.305,2.123-12.174,0a2.441,2.441,0,0,1-1.069-.217l5.235-5.44L8.66,70h.019a.263.263,0,0,0,.248,0h.019l1.79-1.162,5.231,5.425A2.592,2.592,0,0,1,14.891,74.488Zm1.6-.573L11.268,68.49l5.425-3.514a2.24,2.24,0,0,1,.36,1.321v6.068A2.069,2.069,0,0,1,16.487,73.914Z" transform="translate(0 -63.6)"/></g></g></svg>