<svg id="delete" xmlns="http://www.w3.org/2000/svg" width="13.216" height="16.181" viewBox="0 0 13.216 16.181">
  <path id="Path_26" data-name="Path 26" d="M13.174,3.616l-.357-1.071a1,1,0,0,0-.946-.682h-3V.886A.887.887,0,0,0,7.982,0H5.233a.887.887,0,0,0-.886.886v.978h-3A1,1,0,0,0,.4,2.545L.041,3.616A.8.8,0,0,0,.8,4.672h.373L2,14.836a1.47,1.47,0,0,0,1.457,1.345H9.928a1.47,1.47,0,0,0,1.457-1.345l.822-10.164h.207a.8.8,0,0,0,.76-1.055ZM5.295.948H7.92v.916H5.295ZM10.44,14.759a.517.517,0,0,1-.512.473H3.454a.517.517,0,0,1-.512-.473L2.126,4.672h9.13ZM1,3.724,1.3,2.845a.049.049,0,0,1,.047-.034H11.871a.049.049,0,0,1,.047.034l.293.878Zm0,0" transform="translate(0 0)" fill="#ee6423"/>
  <path id="Path_27" data-name="Path 27" d="M268.746,175.07h.025a.474.474,0,0,0,.473-.449l.445-8.546a.474.474,0,1,0-.947-.049l-.445,8.546A.474.474,0,0,0,268.746,175.07Zm0,0" transform="translate(-259.817 -160.344)" fill="#ee6423"/>
  <path id="Path_28" data-name="Path 28" d="M106.26,174.625a.474.474,0,0,0,.473.448h.026a.474.474,0,0,0,.448-.5l-.466-8.546a.474.474,0,1,0-.947.052Zm0,0" transform="translate(-102.45 -160.346)" fill="#ee6423"/>
  <path id="Path_29" data-name="Path 29" d="M194.728,175.073a.474.474,0,0,0,.474-.474v-8.546a.474.474,0,1,0-.948,0V174.6A.474.474,0,0,0,194.728,175.073Zm0,0" transform="translate(-188.115 -160.346)" fill="#ee6423"/>
</svg>
