<svg xmlns="http://www.w3.org/2000/svg" width="21.485" height="21.578" viewBox="0 0 21.485 21.578">
  <g id="edit-button" transform="translate(-0.757)">
    <path id="Path_88" data-name="Path 88" d="M109.138.727,109.112.7a2.689,2.689,0,0,0-3.8.172L95.705,11.395a.928.928,0,0,0-.2.332l-1.13,3.387a1.288,1.288,0,0,0,1.22,1.7h0a1.283,1.283,0,0,0,.517-.109l3.271-1.431a.927.927,0,0,0,.313-.224L109.31,4.526A2.692,2.692,0,0,0,109.138.727ZM96.545,14.488l.663-1.988.056-.061,1.257,1.148-.056.061Zm11.4-11.214-8.168,8.943L98.515,11.07l8.168-8.943a.833.833,0,0,1,1.177-.053l.026.024A.834.834,0,0,1,107.94,3.275Z" transform="translate(-87.771 0)" fill="#fff"/>
    <path id="Path_89" data-name="Path 89" d="M19.5,38.83a.928.928,0,0,0-.928.928v7.876a2.362,2.362,0,0,1-2.359,2.359H4.972a2.362,2.362,0,0,1-2.359-2.359V36.481a2.362,2.362,0,0,1,2.359-2.359h8.139a.928.928,0,1,0,0-1.856H4.972A4.22,4.22,0,0,0,.757,36.481V47.634a4.22,4.22,0,0,0,4.215,4.215H16.216a4.22,4.22,0,0,0,4.215-4.215V39.757A.928.928,0,0,0,19.5,38.83Z" transform="translate(0 -30.27)" fill="#fff"/>
  </g>
</svg>
