<svg width="20" height="4" viewBox="0 0 20 4" fill="none" xmlns="http://www.w3.org/2000/svg">
<path fill-rule="evenodd" clip-rule="evenodd" d="M18.1633 3.83656C17.1489 3.83656 16.3265 3.01422 16.3265 1.99982C16.3265 0.98542 17.1489 0.163086 18.1633 0.163086C19.1777 0.163086 20 0.98542 20 1.99982C20 3.01422 19.1777 3.83656 18.1633 3.83656ZM10 3.83656C8.9856 3.83656 8.16327 3.01422 8.16327 1.99982C8.16327 0.98542 8.9856 0.163086 10 0.163086C11.0144 0.163086 11.8367 0.98542 11.8367 1.99982C11.8367 3.01422 11.0144 3.83656 10 3.83656ZM0 1.99982C0 3.01422 0.822334 3.83656 1.83673 3.83656C2.85114 3.83656 3.67347 3.01422 3.67347 1.99982C3.67347 0.98542 2.85114 0.163086 1.83673 0.163086C0.822334 0.163086 0 0.98542 0 1.99982Z" fill="#ffffff"/>
</svg>
