<svg xmlns="http://www.w3.org/2000/svg" xmlns:xlink="http://www.w3.org/1999/xlink" width="12.807" height="19" viewBox="0 0 12.807 19">
  <defs>
    <linearGradient id="linear-gradient" x1="0.5" x2="0.5" y2="1" gradientUnits="objectBoundingBox">
      <stop offset="0" stop-color="#ff802c"/>
      <stop offset="1" stop-color="#ffb02c"/>
    </linearGradient>
  </defs>
  <g id="employee" transform="translate(-83.447)">
    <g id="Group_165" data-name="Group 165" transform="translate(83.447)">
      <path id="Path_97" data-name="Path 97" d="M95.975,15.395a.278.278,0,0,0-.278.278V18.29a.154.154,0,0,1-.154.154h-1.5V12.962a.278.278,0,0,0-.557,0v5.481H90.478l.874-.961a.5.5,0,0,0,.12-.4v-.008l-.832-4.916.224-.337a.631.631,0,0,0,.4.173.487.487,0,0,0,.436-.27h0l.878-1.759,2,.774A1.929,1.929,0,0,1,95.7,12.491v1.883a.278.278,0,0,0,.557,0V12.491a2.484,2.484,0,0,0-1.469-2.268l-.005,0L91.452,8.932v-.78a2.608,2.608,0,0,0,.987-1.715,1.2,1.2,0,0,0,.708-.289A1.182,1.182,0,0,0,93.27,4.48V3.449a3.449,3.449,0,1,0-6.9,0V4.507a1.118,1.118,0,0,0-.287.745,1.179,1.179,0,0,0,.41.9,1.2,1.2,0,0,0,.707.289,2.58,2.58,0,0,0,1.043,1.757v.739l-3.324,1.289-.005,0a2.484,2.484,0,0,0-1.469,2.268v5.8a.711.711,0,0,0,.71.71h2.652a.278.278,0,1,0,0-.557h-.6V12.962a.278.278,0,0,0-.557,0v5.481h-1.5A.154.154,0,0,1,84,18.29v-5.8a1.929,1.929,0,0,1,1.122-1.753l2-.774L88,11.723a.487.487,0,0,0,.436.27.631.631,0,0,0,.4-.173l.224.337-.832,4.916v.008a.5.5,0,0,0,.12.4l.874.961H88.108a.278.278,0,1,0,0,.557h7.435a.711.711,0,0,0,.71-.71V15.673A.278.278,0,0,0,95.975,15.395ZM92.054,9.762l-.818,1.64-.984-.7,1.011-1.248ZM90.409,11.5l-.212.319H89.5L89.29,11.5l.559-.4ZM88.8,9.022V8.5a2.824,2.824,0,0,0,1.052.2A2.613,2.613,0,0,0,90.9,8.484v.541l-1.046,1.291ZM93,5.252a.624.624,0,0,1-.217.473.648.648,0,0,1-.321.148V4.631A.63.63,0,0,1,93,5.252Zm-5.821.621a.629.629,0,0,1-.538-.621.661.661,0,0,1,.538-.607Zm.015-1.8a1.376,1.376,0,0,0-.266.06V3.449a2.893,2.893,0,1,1,5.785,0v.67a1.237,1.237,0,0,0-.251-.049c0-.269,0-.217-.876-1.161a.5.5,0,0,0-.632-.077,5.366,5.366,0,0,1-3.244.873A.5.5,0,0,0,87.194,4.078Zm.542,2.015V4.265a5.948,5.948,0,0,0,3.479-.938c.4.433.621.66.691.746v2.02a2.085,2.085,0,0,1-4.17,0Zm.728,5.309-.818-1.64.79-.306L89.446,10.7Zm.319,5.731.806-4.76h.522l.806,4.76-1.067,1.174Z" transform="translate(-83.447)" fill="url(#linear-gradient)"/>
    </g>
  </g>
</svg>
