<svg xmlns="http://www.w3.org/2000/svg" width="48.187" height="35.23" viewBox="0 0 48.187 35.23">
  <g id="add_1_" data-name="add (1)" transform="translate(-7 -74)">
    <path id="Path_281" data-name="Path 281" d="M176.246,152.091a4.175,4.175,0,1,0-4.175-4.175A4.175,4.175,0,0,0,176.246,152.091Zm0-6.8a2.628,2.628,0,1,1-2.628,2.628A2.628,2.628,0,0,1,176.246,145.287Z" transform="translate(-149.111 -62.997)" fill="#666"/>
    <path id="Path_282" data-name="Path 282" d="M369.992,299.158h-3.384v-3.384a.773.773,0,0,0-1.547,0v3.384h-3.287a.774.774,0,0,0,0,1.547h3.287v3.287a.773.773,0,0,0,1.547,0V300.7h3.384a.774.774,0,0,0,0-1.547Z" transform="translate(-319.773 -199.632)" fill="#666"/>
    <path id="Path_283" data-name="Path 283" d="M51.96,93.253V78.614A4.645,4.645,0,0,0,47.293,74H11.617A4.6,4.6,0,0,0,7,78.614v23.312a4.64,4.64,0,0,0,4.617,4.658H39.742a9.05,9.05,0,0,0,15.445-6.4A9.172,9.172,0,0,0,51.96,93.253ZM11.617,75.547H47.293a3.1,3.1,0,0,1,3.119,3.067V92.206a9,9,0,0,0-4.266-1.065,9.2,9.2,0,0,0-1.011.056l-6.48-4.588a.776.776,0,0,0-.991.079l-8.733,8.583-10.15-4.947a.751.751,0,0,0-.715.026L8.547,95.879V78.614a3.054,3.054,0,0,1,3.07-3.067Zm-3.07,26.379V97.667L18.485,91.9l9.28,4.534-8.754,8.607H11.617A3.091,3.091,0,0,1,8.547,101.926Zm12.672,3.111L38.286,88.253l4.824,3.413a9.047,9.047,0,0,0-4.607,13.37Zm24.916,2.637a7.493,7.493,0,1,1,7.493-7.493A7.493,7.493,0,0,1,46.134,107.674Z" transform="translate(0 0)" fill="#666"/>
  </g>
</svg>
