<svg xmlns="http://www.w3.org/2000/svg" width="30" height="29" viewBox="0 0 30 29">
  <g id="Group_536" data-name="Group 536" transform="translate(-23 -98)">
    <ellipse id="Ellipse_160" data-name="Ellipse 160" cx="15" cy="14.5" rx="15" ry="14.5" transform="translate(23 98)" fill="#fff"/>
    <path id="like" d="M7.089,4.318A3.731,3.731,0,0,1,10.51,2a3.95,3.95,0,0,1,3.731,3.864,3.845,3.845,0,0,1-.121,1.46,6.457,6.457,0,0,1-1.968,3.282L7.089,15.123,2.112,10.605A6.456,6.456,0,0,1,.144,7.324a3.845,3.845,0,0,1-.121-1.46A3.95,3.95,0,0,1,3.754,2,3.615,3.615,0,0,1,7.089,4.318Z" transform="translate(30.858 104.969)" fill="#ee6423" stroke="#fff" stroke-width="1"/>
  </g>
</svg>
