<svg xmlns="http://www.w3.org/2000/svg" xmlns:xlink="http://www.w3.org/1999/xlink" width="18.27" height="18.27" viewBox="0 0 18.27 18.27">
  <defs>
    <linearGradient id="linear-gradient" x1="0.5" x2="0.5" y2="1" gradientUnits="objectBoundingBox">
      <stop offset="0" stop-color="#ff802c"/>
      <stop offset="1" stop-color="#ffb02c"/>
    </linearGradient>
  </defs>
  <g id="lecture" transform="translate(-1 -1)">
    <path id="Path_113" data-name="Path 113" d="M18.975,9.84H18.68V8.021a2.307,2.307,0,0,0-2.307-2.307h-.345V5.4a2.357,2.357,0,1,0-2.357,0v.319h-.345a2.307,2.307,0,0,0-2.307,2.307V9.84H10.43V8.956a.3.3,0,0,0-.295-.295H9.251v-.1a3.7,3.7,0,0,1,.821-2.333.9.9,0,1,0-.428-.41A4.287,4.287,0,0,0,8.662,8.56v.1H7.777a.3.3,0,0,0-.295.295V9.84H7.188a.3.3,0,0,0-.295.295v1.179a.3.3,0,0,0,.295.295h.295v1.768a1.467,1.467,0,0,0-.974,2.57A2.369,2.369,0,0,0,5.42,16.952a2.372,2.372,0,0,0-1.089-1.006,1.473,1.473,0,1,0-1.948,0A2.359,2.359,0,0,0,1,18.091v.884a.3.3,0,0,0,.295.295H13.671a.3.3,0,0,0,.295-.295V18.68h4.42a.3.3,0,0,0,.295-.295V11.608h.295a.3.3,0,0,0,.295-.295V10.135A.3.3,0,0,0,18.975,9.84ZM10.43,5.125a.295.295,0,1,1-.295.295A.295.295,0,0,1,10.43,5.125Zm7.662,2.9V9.84H17.5V8.662h-.589V9.84H15.144V7.665l.752.376a.294.294,0,0,0,.245.009.3.3,0,0,0,.167-.179l.5-1.509a1.713,1.713,0,0,1,1.28,1.659ZM13.818,6.3l.584.778-.559.28L13.491,6.3Zm2.063,0h.328l-.352,1.058-.559-.28ZM14.85,1.589a1.77,1.77,0,0,1,1.738,1.45,2.53,2.53,0,0,1-1.479-.724l-.05-.051a.3.3,0,0,0-.417,0l-.05.05a2.528,2.528,0,0,1-1.479.724,1.769,1.769,0,0,1,1.737-1.45ZM13.1,3.636A3.11,3.11,0,0,0,14.85,2.88a3.111,3.111,0,0,0,1.746.756,1.768,1.768,0,0,1-3.492,0ZM14.85,5.715a2.343,2.343,0,0,0,.589-.077v.274L14.85,6.7l-.589-.786V5.637A2.343,2.343,0,0,0,14.85,5.715ZM11.608,8.021a1.714,1.714,0,0,1,1.28-1.66l.5,1.509a.3.3,0,0,0,.167.179.287.287,0,0,0,.113.023.3.3,0,0,0,.132-.031l.752-.376V9.84H12.787V8.662H12.2V9.84h-.589ZM8.072,9.251H9.84V9.84H8.072ZM6.6,14.85a.884.884,0,1,1,.884.884A.885.885,0,0,1,6.6,14.85Zm-4.125,0a.884.884,0,1,1,.884.884A.885.885,0,0,1,2.473,14.85Zm-.884,3.241a1.768,1.768,0,0,1,3.536,0v.589H1.589Zm4.125,0a1.768,1.768,0,0,1,3.536,0v.589H5.715Zm7.662.589H9.84v-.589a1.768,1.768,0,0,1,3.536,0ZM10.724,14.85a.884.884,0,1,1,.884.884A.885.885,0,0,1,10.724,14.85Zm7.367,3.241H13.966a2.359,2.359,0,0,0-1.383-2.144,1.473,1.473,0,1,0-1.948,0,2.369,2.369,0,0,0-1.089,1.006,2.372,2.372,0,0,0-1.089-1.006A1.464,1.464,0,0,0,8.072,13.5V11.608H18.091Zm.589-7.072H7.483V10.43h11.2Z" fill="url(#linear-gradient)"/>
    <path id="Path_114" data-name="Path 114" d="M1.884,8.3H6.6a.885.885,0,0,0,.884-.884V6.953L8.575,5.86a.294.294,0,0,0,0-.417L7.483,4.351V3.884A.885.885,0,0,0,6.6,3H1.884A.885.885,0,0,0,1,3.884V7.42A.885.885,0,0,0,1.884,8.3Zm-.295-4.42a.3.3,0,0,1,.295-.295H6.6a.3.3,0,0,1,.295.295v.589a.293.293,0,0,0,.086.208l.97.97-.97.97a.293.293,0,0,0-.086.208V7.42a.3.3,0,0,1-.295.295H1.884a.3.3,0,0,1-.295-.295Z" transform="translate(0 -1.411)" fill="url(#linear-gradient)"/>
    <path id="Path_115" data-name="Path 115" d="M5,7H9.125v.589H5Z" transform="translate(-2.821 -4.232)" fill="url(#linear-gradient)"/>
    <path id="Path_116" data-name="Path 116" d="M5,15H9.125v.589H5Z" transform="translate(-2.821 -9.875)" fill="url(#linear-gradient)"/>
    <path id="Path_117" data-name="Path 117" d="M7,11H9.947v.589H7Z" transform="translate(-4.232 -7.053)" fill="url(#linear-gradient)"/>
  </g>
</svg>
