<svg xmlns="http://www.w3.org/2000/svg" xmlns:xlink="http://www.w3.org/1999/xlink" width="19.398" height="19.076" viewBox="0 0 19.398 19.076">
  <defs>
    <linearGradient id="linear-gradient" x1="0.5" x2="0.5" y2="1" gradientUnits="objectBoundingBox">
      <stop offset="0" stop-color="#ff802c"/>
      <stop offset="1" stop-color="#ffb02c"/>
    </linearGradient>
  </defs>
  <g id="location" transform="translate(0 -5.246)">
    <g id="Group_164" data-name="Group 164" transform="translate(0 5.246)">
      <g id="Group_163" data-name="Group 163" transform="translate(0 0)">
        <path id="Path_90" data-name="Path 90" d="M88.47,18.363c.8,1.126,1.6,2.134,2.125,2.783l.219.266h-1.6a.323.323,0,1,0,0,.647h5.173a.323.323,0,0,0,0-.647H92.8l.219-.266c.528-.647,1.326-1.656,2.125-2.783a28.4,28.4,0,0,0,2.136-3.442,7.561,7.561,0,0,0,1-3.2,6.462,6.462,0,0,0-1.894-4.578.323.323,0,1,0-.457.457,5.817,5.817,0,0,1,1.7,4.121,6.969,6.969,0,0,1-.925,2.905,27.764,27.764,0,0,1-2.087,3.362c-.788,1.112-1.576,2.108-2.1,2.748-.174.213-.33.4-.463.56a.328.328,0,0,1-.493,0c-.133-.159-.289-.347-.463-.56-.522-.64-1.31-1.636-2.1-2.748a27.764,27.764,0,0,1-2.087-3.362,6.96,6.96,0,0,1-.925-2.905,5.821,5.821,0,0,1,8.086-5.37.323.323,0,0,0,.252-.6,6.468,6.468,0,0,0-8.985,5.966,7.573,7.573,0,0,0,1,3.2A28.385,28.385,0,0,0,88.47,18.363Z" transform="translate(-82.106 -5.246)" fill="url(#linear-gradient)"/>
        <path id="Path_91" data-name="Path 91" d="M173.893,82.732a.323.323,0,1,0,0-.647,3.233,3.233,0,1,0,2.286.947.323.323,0,1,0-.457.457,2.586,2.586,0,1,1-1.829-.758Z" transform="translate(-164.194 -79.174)" fill="url(#linear-gradient)"/>
        <path id="Path_92" data-name="Path 92" d="M19.276,367.748l-1.988-3.556a1,1,0,0,0-.88-.508H14.1a.323.323,0,0,0,0,.647h2.3a.358.358,0,0,1,.316.177l1.988,3.556a.291.291,0,0,1,0,.3.356.356,0,0,1-.313.171H1a.356.356,0,0,1-.313-.171.291.291,0,0,1,0-.3l1.988-3.556a.358.358,0,0,1,.316-.177h2.3a.323.323,0,0,0,0-.647H2.99a1.006,1.006,0,0,0-.88.508L.122,367.748a.938.938,0,0,0,.01.941A1,1,0,0,0,1,369.18H18.4a1,1,0,0,0,.87-.491A.938.938,0,0,0,19.276,367.748Z" transform="translate(0 -350.103)" fill="url(#linear-gradient)"/>
        <path id="Path_93" data-name="Path 93" d="M352.455,406.351h-1.293a.325.325,0,0,0-.179.054l-.97.647a.323.323,0,1,0,.359.538l.887-.592h1.2a.323.323,0,0,0,0-.647Z" transform="translate(-336.614 -391.155)" fill="url(#linear-gradient)"/>
        <path id="Path_94" data-name="Path 94" d="M366.937,457.874a.323.323,0,0,0,.323.323h2.586a.323.323,0,0,0,0-.647H367.26A.323.323,0,0,0,366.937,457.874Z" transform="translate(-353.035 -440.415)" fill="url(#linear-gradient)"/>
        <path id="Path_95" data-name="Path 95" d="M87.923,407.643a.323.323,0,0,0,.18-.592l-.97-.647a.326.326,0,0,0-.18-.054H85.66a.323.323,0,0,0,0,.647h1.2l.888.592A.323.323,0,0,0,87.923,407.643Z" transform="translate(-82.104 -391.154)" fill="url(#linear-gradient)"/>
        <path id="Path_96" data-name="Path 96" d="M60.06,457.551a.323.323,0,1,0,0,.647h2.586a.323.323,0,1,0,0-.647Z" transform="translate(-57.474 -440.415)" fill="url(#linear-gradient)"/>
      </g>
    </g>
  </g>
</svg>
