<svg xmlns="http://www.w3.org/2000/svg" width="18.002" height="19.421" viewBox="0 0 18.002 19.421">
  <g id="logout" transform="translate(-17.219)">
    <g id="Group_142" data-name="Group 142" transform="translate(17.219)">
      <path id="Path_80" data-name="Path 80" d="M25.891,18.309H20.825a2.5,2.5,0,0,1-2.494-2.494V3.606a2.5,2.5,0,0,1,2.494-2.494h5.148a.556.556,0,1,0,0-1.113H20.825a3.61,3.61,0,0,0-3.606,3.606V15.815a3.61,3.61,0,0,0,3.606,3.606h5.066a.556.556,0,1,0,0-1.113Z" transform="translate(-17.219)" fill="#666"/>
      <path id="Path_81" data-name="Path 81" d="M134.1,140.025l-3.536-3.536a.557.557,0,1,0-.787.787l2.588,2.588H121.075a.556.556,0,1,0,0,1.113h11.289l-2.588,2.588a.559.559,0,0,0,.392.952.543.543,0,0,0,.392-.165l3.536-3.536A.556.556,0,0,0,134.1,140.025Z" transform="translate(-116.261 -130.706)" fill="#666"/>
    </g>
  </g>
</svg>
