<svg xmlns="http://www.w3.org/2000/svg" xmlns:xlink="http://www.w3.org/1999/xlink" width="93" height="93" viewBox="0 0 93 93">
  <defs>
    <filter id="Rectangle_195" x="0" y="0" width="93" height="93" filterUnits="userSpaceOnUse">
      <feOffset dy="3" input="SourceAlpha"/>
      <feGaussianBlur stdDeviation="3" result="blur"/>
      <feFlood flood-opacity="0.161"/>
      <feComposite operator="in" in2="blur"/>
      <feComposite in="SourceGraphic"/>
    </filter>
    <linearGradient id="linear-gradient" x1="0.5" x2="0.5" y2="1" gradientUnits="objectBoundingBox">
      <stop offset="0" stop-color="#ff802c"/>
      <stop offset="1" stop-color="#ffb02c"/>
    </linearGradient>
  </defs>
  <g id="Group_538" data-name="Group 538" transform="translate(-267 -129)">
    <g transform="matrix(1, 0, 0, 1, 267, 129)" filter="url(#Rectangle_195)">
      <rect id="Rectangle_195-2" data-name="Rectangle 195" width="75" height="75" rx="12" transform="translate(9 6)" fill="#fff"/>
    </g>
    <g id="wallet" transform="translate(297.573 153.117)">
      <g id="Group_95" data-name="Group 95" transform="translate(0 0)">
        <g id="Group_94" data-name="Group 94">
          <path id="Path_55" data-name="Path 55" d="M39.284,19.558h-.5v-4.5a2.113,2.113,0,0,0-.9-1.727v-.613a1.614,1.614,0,0,0-1.612-1.612H35.9L37.33,9.011a1.543,1.543,0,0,0-.406-2.141L27.238.268A1.541,1.541,0,0,0,25.1.674L16.737,12.943H14.41l.561-5.682a.169.169,0,0,1,.106-.141,3.617,3.617,0,0,0,1.765-1.434A.167.167,0,0,1,17,5.611l3.649.361a.476.476,0,1,0,.094-.947l-3.649-.361a1.114,1.114,0,0,0-1.054.51,2.659,2.659,0,0,1-1.3,1.054,1.112,1.112,0,0,0-.717.938l-.571,5.776h-.607l.888-8.987a.59.59,0,0,1,.645-.529l7.374.728a.476.476,0,0,0,.094-.947L14.473,2.48a1.543,1.543,0,0,0-1.685,1.382l-.716,7.243H10.854a1.614,1.614,0,0,0-1.612,1.612v.418a2.117,2.117,0,0,0-1.234,1.922V31.276a2.117,2.117,0,0,0,2.115,2.115H36.67a2.117,2.117,0,0,0,2.115-2.115v-4.5h.5a1.071,1.071,0,0,0,1.07-1.07V20.628A1.071,1.071,0,0,0,39.284,19.558Zm-3.008-7.5h0a.661.661,0,0,1,.661.661v.242a2.12,2.12,0,0,0-.267-.017H34.651l.6-.886ZM25.883,1.21a.586.586,0,0,1,.377-.247.6.6,0,0,1,.111-.01.586.586,0,0,1,.331.1l9.687,6.6a.59.59,0,0,1,.155.819L33.5,12.942h-.731l1.493-2.19a1.112,1.112,0,0,0,.052-1.18,2.659,2.659,0,0,1-.319-1.641,1.113,1.113,0,0,0-.481-1.068L28.492,3.441a1.113,1.113,0,0,0-1.17-.057,2.66,2.66,0,0,1-1.644.3,1.126,1.126,0,0,0-1.079.48l-5.98,8.775h-.731Zm.21,8.08a3.926,3.926,0,0,0-3.911,3.653H19.77L25.385,4.7h0a.17.17,0,0,1,.139-.075h.022a3.617,3.617,0,0,0,2.236-.413.168.168,0,0,1,.174.011l5.022,3.422a.168.168,0,0,1,.074.158,3.616,3.616,0,0,0,.434,2.232.169.169,0,0,1-.009.176l-1.858,2.726H30A3.926,3.926,0,0,0,26.093,9.289Zm2.957,3.653H23.136a2.969,2.969,0,0,1,5.915,0Zm-18.857-.225a.661.661,0,0,1,.661-.661h1.125l-.087.886h-1.7ZM8.96,15.057a1.164,1.164,0,0,1,1.163-1.163H36.67a1.164,1.164,0,0,1,1.163,1.163v1.32H8.96ZM37.833,31.276a1.164,1.164,0,0,1-1.163,1.163H10.123A1.164,1.164,0,0,1,8.96,31.276v-1.32h2.566a.476.476,0,0,0,0-.951H8.96V17.329H37.833v2.229H33.309a3.613,3.613,0,0,0-3.246,2.033l-.006.012-.014.031a3.587,3.587,0,0,0-.18.46h0a3.61,3.61,0,0,0,3.446,4.679h4.524V29H14.572a.476.476,0,0,0,0,.951H37.833Zm1.569-5.57a.118.118,0,0,1-.118.118H33.309a2.659,2.659,0,0,1-2.336-1.392q-.031-.056-.059-.115-.056-.116-.1-.238a2.66,2.66,0,0,1,0-1.825q.045-.122.1-.238.028-.058.059-.115a2.659,2.659,0,0,1,2.336-1.392h5.975a.118.118,0,0,1,.118.118Z" transform="translate(-8.008 0)" fill="url(#linear-gradient)"/>
        </g>
      </g>
      <g id="Group_97" data-name="Group 97" transform="translate(23.482 21.236)">
        <g id="Group_96" data-name="Group 96">
          <path id="Path_56" data-name="Path 56" d="M370.011,325.627a1.93,1.93,0,1,0,1.93,1.93A1.933,1.933,0,0,0,370.011,325.627Zm0,2.909a.979.979,0,1,1,.979-.979A.98.98,0,0,1,370.011,328.536Z" transform="translate(-368.081 -325.627)" fill="url(#linear-gradient)"/>
        </g>
      </g>
    </g>
  </g>
</svg>
