<svg xmlns="http://www.w3.org/2000/svg" xmlns:xlink="http://www.w3.org/1999/xlink" width="93" height="93" viewBox="0 0 93 93">
  <defs>
    <filter id="Rectangle_195" x="0" y="0" width="93" height="93" filterUnits="userSpaceOnUse">
      <feOffset dy="3" input="SourceAlpha"/>
      <feGaussianBlur stdDeviation="3" result="blur"/>
      <feFlood flood-opacity="0.161"/>
      <feComposite operator="in" in2="blur"/>
      <feComposite in="SourceGraphic"/>
    </filter>
    <linearGradient id="linear-gradient" x1="0.5" x2="0.5" y2="1" gradientUnits="objectBoundingBox">
      <stop offset="0" stop-color="#ff802c"/>
      <stop offset="1" stop-color="#ffb02c"/>
    </linearGradient>
  </defs>
  <g id="Group_470" data-name="Group 470" transform="translate(8.657 6)">
    <g transform="matrix(1, 0, 0, 1, -8.66, -6)" filter="url(#Rectangle_195)">
      <rect id="Rectangle_195-2" data-name="Rectangle 195" width="75" height="75" rx="12" transform="translate(9 6)" fill="#fff"/>
    </g>
    <g id="start" transform="translate(23.089 19.797)">
      <g id="Group_133" data-name="Group 133" transform="translate(8.174 11.147)">
        <g id="Group_132" data-name="Group 132" transform="translate(0)">
          <path id="Path_75" data-name="Path 75" d="M171.151,165a6.144,6.144,0,0,0-5.214,9.4.674.674,0,0,0,.064.1,6.146,6.146,0,1,0,5.15-9.5Zm-4.439,7.96a4.794,4.794,0,0,1,8.359-4.572l-3.71,3.71-1.416-1.416a.676.676,0,0,0-.955,0Zm4.439,2.983a4.788,4.788,0,0,1-3.728-1.783l2.044-2.044,1.416,1.416a.676.676,0,0,0,.955,0l3.872-3.872a4.794,4.794,0,0,1-4.559,6.283Z" transform="translate(-165.004 -165.004)" fill="url(#linear-gradient)"/>
        </g>
      </g>
      <g id="Group_135" data-name="Group 135" transform="translate(0 0)">
        <g id="Group_134" data-name="Group 134" transform="translate(0 0)">
          <path id="Path_76" data-name="Path 76" d="M68.714,16.828A20.034,20.034,0,0,0,58.657.089a.675.675,0,0,0-.672,0A20.034,20.034,0,0,0,47.929,16.827,6.491,6.491,0,0,0,44,22.789v4.773a.676.676,0,0,0,.676.676H54.6a8.488,8.488,0,0,0,2.492,5.413l.754.743a.676.676,0,0,0,.948,0l.754-.743a8.488,8.488,0,0,0,2.492-5.413h2.09v3.487a.676.676,0,1,0,1.351,0V28.237h6.485a.676.676,0,0,0,.676-.676V22.789A6.491,6.491,0,0,0,68.714,16.828ZM58.321,1.459A18.645,18.645,0,0,1,63.7,6.35H52.946A18.645,18.645,0,0,1,58.321,1.459ZM45.351,26.886v-4.1a5.141,5.141,0,0,1,2.567-4.448v7.87a2.017,2.017,0,0,0,.116.676Zm13.25,5.8-.28.275-.28-.275a7.127,7.127,0,0,1-2.085-4.451h4.728A7.128,7.128,0,0,1,58.6,32.688Zm8.773-6.477a.676.676,0,0,1-.676.676H49.945a.676.676,0,0,1-.676-.676V17.468a18.635,18.635,0,0,1,1.38-7.032h3.059a.676.676,0,1,0,0-1.351H51.263q.356-.709.771-1.385H64.609a18.686,18.686,0,0,1,2.765,9.768Zm3.918.676H68.609a2.017,2.017,0,0,0,.116-.676v-7.87a5.14,5.14,0,0,1,2.567,4.448Z" transform="translate(-44 0)" fill="url(#linear-gradient)"/>
        </g>
      </g>
      <g id="Group_137" data-name="Group 137" transform="translate(11.484 9.086)">
        <g id="Group_136" data-name="Group 136" transform="translate(0)">
          <path id="Path_77" data-name="Path 77" d="M215.153,134.7a.675.675,0,1,0,.2.478A.68.68,0,0,0,215.153,134.7Z" transform="translate(-214 -134.5)" fill="url(#linear-gradient)"/>
        </g>
      </g>
      <g id="Group_139" data-name="Group 139" transform="translate(7.161 30.045)">
        <g id="Group_138" data-name="Group 138" transform="translate(0)">
          <path id="Path_78" data-name="Path 78" d="M150.676,444.751a.675.675,0,0,0-.676.675v2.081a.676.676,0,1,0,1.351,0v-2.081A.675.675,0,0,0,150.676,444.751Z" transform="translate(-150 -444.751)" fill="url(#linear-gradient)"/>
        </g>
      </g>
      <g id="Group_141" data-name="Group 141" transform="translate(20.131 33.237)">
        <g id="Group_140" data-name="Group 140" transform="translate(0)">
          <path id="Path_79" data-name="Path 79" d="M343.153,492.2a.675.675,0,1,0,.2.478A.68.68,0,0,0,343.153,492.2Z" transform="translate(-342 -492)" fill="url(#linear-gradient)"/>
        </g>
      </g>
    </g>
  </g>
</svg>
