<svg xmlns="http://www.w3.org/2000/svg" xmlns:xlink="http://www.w3.org/1999/xlink" width="93" height="93" viewBox="0 0 93 93">
  <defs>
    <filter id="Rectangle_195" x="0" y="0" width="93" height="93" filterUnits="userSpaceOnUse">
      <feOffset dy="3" input="SourceAlpha"/>
      <feGaussianBlur stdDeviation="3" result="blur"/>
      <feFlood flood-opacity="0.161"/>
      <feComposite operator="in" in2="blur"/>
      <feComposite in="SourceGraphic"/>
    </filter>
    <linearGradient id="linear-gradient" x1="0.5" x2="0.5" y2="1" gradientUnits="objectBoundingBox">
      <stop offset="0" stop-color="#ff802c"/>
      <stop offset="1" stop-color="#ffb02c"/>
    </linearGradient>
  </defs>
  <g id="Group_472" data-name="Group 472" transform="translate(9.343 6)">
    <g transform="matrix(1, 0, 0, 1, -9.34, -6)" filter="url(#Rectangle_195)">
      <rect id="Rectangle_195-2" data-name="Rectangle 195" width="75" height="75" rx="12" transform="translate(9 6)" fill="#fff"/>
    </g>
    <g id="employee" transform="translate(24.382 18.333)">
      <g id="Group_165" data-name="Group 165" transform="translate(0)">
        <path id="Path_97" data-name="Path 97" d="M108.017,30.191a.546.546,0,0,0-.546.546v5.132a.3.3,0,0,1-.3.3h-2.934V25.421a.546.546,0,0,0-1.092,0V36.17H97.235l1.713-1.885a.979.979,0,0,0,.236-.785l0-.017-1.632-9.64.44-.662a1.238,1.238,0,0,0,.781.339.956.956,0,0,0,.855-.529h0l1.721-3.45,3.921,1.518a3.782,3.782,0,0,1,2.2,3.438v3.692a.546.546,0,1,0,1.092,0V24.5a4.871,4.871,0,0,0-2.881-4.449l-.01,0-6.526-2.527v-1.53a5.114,5.114,0,0,0,1.936-3.364,2.363,2.363,0,0,0,1.388-.566,2.317,2.317,0,0,0,.242-3.27V6.765a6.765,6.765,0,1,0-13.529,0V8.84a2.192,2.192,0,0,0-.563,1.461,2.313,2.313,0,0,0,.8,1.756,2.361,2.361,0,0,0,1.387.566,5.06,5.06,0,0,0,2.046,3.445v1.45l-6.519,2.527-.01,0A4.871,4.871,0,0,0,83.447,24.5V35.868a1.4,1.4,0,0,0,1.393,1.393h5.2a.546.546,0,0,0,0-1.092H88.866V25.421a.546.546,0,0,0-1.092,0V36.17H84.84a.3.3,0,0,1-.3-.3V24.5a3.782,3.782,0,0,1,2.2-3.437l3.918-1.519,1.721,3.45a.956.956,0,0,0,.856.529,1.237,1.237,0,0,0,.781-.339l.44.662-1.632,9.64,0,.016a.979.979,0,0,0,.236.785l1.713,1.885H92.588a.546.546,0,0,0,0,1.092H107.17a1.4,1.4,0,0,0,1.393-1.393V30.736A.546.546,0,0,0,108.017,30.191Zm-7.691-11.045-1.6,3.216-1.93-1.371,1.982-2.447Zm-3.226,3.4-.416.626H95.322l-.416-.626,1.1-.779Zm-3.151-4.855V16.672a5.538,5.538,0,0,0,2.064.391,5.124,5.124,0,0,0,2.042-.425V17.7L96,20.229Zm8.234-7.393a1.223,1.223,0,0,1-.425.928,1.271,1.271,0,0,1-.63.29V9.083A1.235,1.235,0,0,1,102.182,10.3ZM90.765,11.519A1.233,1.233,0,0,1,89.71,10.3,1.3,1.3,0,0,1,90.765,9.11ZM90.795,8a2.7,2.7,0,0,0-.522.118V6.765a5.673,5.673,0,1,1,11.346,0V8.078a2.426,2.426,0,0,0-.492-.1c0-.527,0-.425-1.718-2.277a.971.971,0,0,0-1.24-.151,10.523,10.523,0,0,1-6.362,1.713A.971.971,0,0,0,90.795,8Zm1.062,3.951V8.364a11.664,11.664,0,0,0,6.822-1.84c.79.848,1.218,1.293,1.356,1.463v3.962a4.09,4.09,0,0,1-8.178,0Zm1.428,10.412-1.6-3.216,1.55-.6,1.982,2.447Zm.626,11.24,1.58-9.334h1.024l1.58,9.334L96,35.9Z" transform="translate(-83.447)" fill="url(#linear-gradient)"/>
      </g>
    </g>
  </g>
</svg>
