<svg xmlns="http://www.w3.org/2000/svg" xmlns:xlink="http://www.w3.org/1999/xlink" width="93" height="93" viewBox="0 0 93 93">
  <defs>
    <filter id="Rectangle_195" x="0" y="0" width="93" height="93" filterUnits="userSpaceOnUse">
      <feOffset dy="3" input="SourceAlpha"/>
      <feGaussianBlur stdDeviation="3" result="blur"/>
      <feFlood flood-opacity="0.161"/>
      <feComposite operator="in" in2="blur"/>
      <feComposite in="SourceGraphic"/>
    </filter>
    <linearGradient id="linear-gradient" x1="0.5" x2="0.5" y2="1" gradientUnits="objectBoundingBox">
      <stop offset="0" stop-color="#ff802c"/>
      <stop offset="1" stop-color="#ffb02c"/>
    </linearGradient>
  </defs>
  <g id="Group_471" data-name="Group 471" transform="translate(8.912 6)">
    <g transform="matrix(1, 0, 0, 1, -8.91, -6)" filter="url(#Rectangle_195)">
      <rect id="Rectangle_195-2" data-name="Rectangle 195" width="75" height="75" rx="12" transform="translate(9 6)" fill="#fff"/>
    </g>
    <g id="recommendation" transform="translate(19.48 22.242)">
      <path id="Path_73" data-name="Path 73" d="M29.18.5H5.149A5.155,5.155,0,0,0,0,5.649V23.958a5.155,5.155,0,0,0,5.149,5.149H6.593L4.618,34.044a.572.572,0,0,0,.778.727l11.9-5.664H29.179a5.155,5.155,0,0,0,5.149-5.149V5.649A5.155,5.155,0,0,0,29.179.5Zm4.005,23.458a4.01,4.01,0,0,1-4.005,4.005H17.164a.574.574,0,0,0-.246.057L6.224,33.112,7.97,28.749a.572.572,0,0,0-.532-.786H5.149a4.01,4.01,0,0,1-4.005-4.005V5.649A4.01,4.01,0,0,1,5.149,1.644H29.18a4.01,4.01,0,0,1,4.005,4.005Zm0,0" transform="translate(0 -0.5)" fill="url(#linear-gradient)"/>
      <path id="Path_74" data-name="Path 74" d="M112.214,61.437h-5.063a.572.572,0,0,1-.544-.395l-1.564-4.816a1.716,1.716,0,0,0-3.266,0l-1.564,4.816a.572.572,0,0,1-.544.395H94.605a1.716,1.716,0,0,0-1.009,3.1l4.1,2.975a.572.572,0,0,1,.208.64l-1.565,4.815a1.716,1.716,0,0,0,2.641,1.919l4.1-2.975a.572.572,0,0,1,.673,0l4.1,2.975a1.716,1.716,0,0,0,2.641-1.919l-1.565-4.816a.572.572,0,0,1,.208-.64l4.1-2.975a1.716,1.716,0,0,0-1.009-3.1Zm.336,2.18-4.1,2.975a1.711,1.711,0,0,0-.624,1.918l1.564,4.815a.572.572,0,0,1-.88.641l-4.1-2.975a1.712,1.712,0,0,0-2.019,0l-4.1,2.975a.572.572,0,0,1-.88-.64l1.564-4.814a1.712,1.712,0,0,0-.624-1.919l-4.1-2.975a.572.572,0,0,1,.336-1.037h5.063A1.711,1.711,0,0,0,101.3,61.4l1.565-4.815a.572.572,0,0,1,1.087,0l1.565,4.816a1.711,1.711,0,0,0,1.633,1.185h5.063a.572.572,0,0,1,.336,1.036Zm0,0" transform="translate(-86.245 -51.139)" fill="url(#linear-gradient)"/>
    </g>
  </g>
</svg>
