<svg xmlns="http://www.w3.org/2000/svg" xmlns:xlink="http://www.w3.org/1999/xlink" width="20.525" height="12.347" viewBox="0 0 20.525 12.347">
  <defs>
    <linearGradient id="linear-gradient" x1="0.5" x2="0.5" y2="1" gradientUnits="objectBoundingBox">
      <stop offset="0" stop-color="#ff802c"/>
      <stop offset="1" stop-color="#ffb02c"/>
    </linearGradient>
  </defs>
  <path id="mortarboard" d="M20.345,4.481,10.386.028a.3.3,0,0,0-.248,0L6.1,1.834a.3.3,0,0,0,.248.554L10.262.638l3.583,1.6V4.477a12.449,12.449,0,0,0-3.574-.75h-.017a12.544,12.544,0,0,0-3.993.912A10.349,10.349,0,0,0,4.009,5.891a.3.3,0,0,0-.106.145L1.047,4.759l4-1.79A.3.3,0,0,0,4.8,2.414L.179,4.481a.3.3,0,0,0,0,.554L3.886,6.693V8.147a.3.3,0,0,0,.607,0V6.5h0V6.29a9.823,9.823,0,0,1,2-1.089,12.21,12.21,0,0,1,3.772-.867,12.148,12.148,0,0,1,3.582.792V8.142a1.073,1.073,0,0,0-.106,2.02l-.212.559a11.345,11.345,0,0,0-3.265.978,16.985,16.985,0,0,0-5.769-1.277V9.571a.3.3,0,1,0-.607,0V10.71a.3.3,0,0,0,.29.3c.04,0,3.986.186,5.935,1.3a.3.3,0,0,0,.3,0,9.728,9.728,0,0,1,2.862-.925l-.179.473a.3.3,0,0,0,.284.412h1.538a.3.3,0,0,0,.284-.412l-.275-.722c.826-.095,1.414-.121,1.421-.122a.3.3,0,0,0,.29-.3V9.571a.3.3,0,0,0-.607,0v.852c-.283.019-.754.057-1.326.126l-.147-.386a1.073,1.073,0,0,0-.106-2.02V5.383a9.619,9.619,0,0,1,1.579.907V6.5h0V8.147a.3.3,0,1,0,.607,0V6.693l3.707-1.658a.3.3,0,0,0,0-.554Zm-6.525,7.179.329-.866.329.866Zm.795-2.49a.465.465,0,1,1-.466-.466A.466.466,0,0,1,14.614,9.171Zm2.007-3.136a.3.3,0,0,0-.106-.145,10.258,10.258,0,0,0-2.063-1.173V2.512l5.025,2.247Zm0,0" transform="translate(0 -0.002)" fill="url(#linear-gradient)"/>
</svg>
