<svg xmlns="http://www.w3.org/2000/svg" xmlns:xlink="http://www.w3.org/1999/xlink" width="298.689" height="248.575" viewBox="0 0 298.689 248.575"><defs><style>.a,.b{fill:#ffeddd;}.b{opacity:0.9;}.c,.i,.o,.q,.v{fill:none;}.c,.d,.i,.j,.o,.p,.r{stroke:#263238;}.c,.d,.o,.v{stroke-linecap:round;stroke-linejoin:round;}.c,.d,.i,.j,.o,.p,.q,.r,.v{stroke-miterlimit:10;}.d,.n,.p,.u{fill:#263238;}.e,.f,.l,.r{fill:#ee6423;}.f{opacity:0.6;}.g,.j{fill:#fff;}.h{clip-path:url(#a);}.k{clip-path:url(#b);}.l{opacity:0.5;}.m{clip-path:url(#c);}.o{stroke-width:2px;}.q,.v{stroke:#fff;stroke-width:0.5px;}.s{clip-path:url(#e);}.t{clip-path:url(#f);}.u{opacity:0.2;}.w{clip-path:url(#g);}.x{clip-path:url(#h);}.y{clip-path:url(#i);}.z{clip-path:url(#j);}</style><clipPath id="a"><path d="M230.266,156.282s-7.278,2.64-9.775,3.71-10.417,2-11.63,2.783-32.107,34.89-31.465,35.532,7.634.928,9.632.5c2-.5,27.184-24.83,27.184-24.83s3.282.143,3.282,2.64,1.57,29.467,1.57,29.467l32.107-.642.143-32.749s.285-3.282,2.783-3.068c2.5.143,29.039,9.632,29.039,9.632l7.634-6.493s-26.827-10.417-31.965-13.628c-5.137-3.282-6.493-6.636-8.562-6.636S230.266,156.282,230.266,156.282Z" transform="translate(-177.386 -152.5)"/></clipPath><clipPath id="b"><path d="M245.6,148.7s.285,8.205,1.213,8.562c.928.285,3.567,2.355,5.137,2.355s3.71-3.068,3.853-3.567-.642-8.348-.642-8.348l-8.99.928Z" transform="translate(-245.6 -147.7)"/></clipPath><clipPath id="c"><path d="M233.32,119.324s.071.214.143.5c.642,2,3.068,9.2,4,11.416,1.07,2.64,5.28,5.565,10.845,4.638s7.135-7.42,7.135-9.918-1.213-21.69-1.213-21.69-6.636-6.85-12.129-8.99c-5.423-2.14-8.062.285-10.06,4.067-2,3.71-3.068,5.922-2.5,8.348C230.252,110.191,233.32,119.324,233.32,119.324Z" transform="translate(-229.386 -94.479)"/></clipPath><clipPath id="e"><path d="M211.512,340.3,209.8,363.56l9.989,13.7.714-31.322Z" transform="translate(-209.8 -340.3)"/></clipPath><clipPath id="f"><path d="M222.863,242.318h0l1.855-19.692s13.842-3.853,20.62-3.068a84.917,84.917,0,0,1,14.413,3.282s2.64,25.757,5.708,38.315,4.5,31.18,4.638,38.172-4.5,9.49-5.708,10.988c-1.213,1.57-9.133,10.988-9.133,10.988s-4.994-3.068-6.493-8.062c-1.57-4.994-.642-6.992-.642-6.992l11.63-8.847s-4.78-28.4-8.562-34.747c-3.71-6.35-6.493-8.847-10.56-9.918s-4.21-.642-9.275,2.783a60.939,60.939,0,0,0-8.99,7.42l-3.782,52.513a93.282,93.282,0,0,0-9.49-7.92,61.715,61.715,0,0,0-6.992-4.067s6.279-47.091,9.347-49.731C214.658,251.166,222.863,242.318,222.863,242.318Z" transform="translate(-202.1 -219.452)"/></clipPath><clipPath id="g"><path d="M302.668,188.448s-2.426-1-.714-2.711c1.784-1.712,19.835-5.708,23.26-5.637s5.351,2.569,6.065,5.423-.928,5.851-4.566,7.278-19.05,3.5-21.476,3.139C302.882,195.511,302.668,188.448,302.668,188.448Z" transform="translate(-301.343 -180.099)"/></clipPath><clipPath id="h"><path d="M290.236,188.115s-7.777-9.275-8.776-8.919c-1.07.357-7.064.713-7.848,1.5-.785.714.785,3,.785,3a12.548,12.548,0,0,0-.571,2.783c0,1,1.427,2,1.427,2a12.3,12.3,0,0,0,.143,2.569c.214.714.642.928.785,1.356s-.071,2.283,1.142,2.711a6.236,6.236,0,0,0,3.5.357c.856-.285,1.641-.5,1.641-.5s3.639.785,5.209.5c1.5-.285,4.352-.714,4.352-.714Z" transform="translate(-273.392 -179.186)"/></clipPath><clipPath id="i"><path d="M203.349,210.939s2-1.712-.143-2.783-20.62.5-23.9,1.57-4.352,4.067-4.21,6.992,2.64,5.28,6.493,5.565,19.264-2.355,21.4-3.425C205.2,217.717,203.349,210.939,203.349,210.939Z" transform="translate(-175.083 -207.798)"/></clipPath><clipPath id="j"><path d="M220.6,205.287s4.638-11.2,5.708-11.2,6.992-1.427,7.92-.928.143,3.068.143,3.068a17.159,17.159,0,0,1,1.427,2.5c.285.928-.785,2.355-.785,2.355a10.824,10.824,0,0,1,.642,2.5c0,.785-.285,1.07-.285,1.57s.785,2.14-.285,2.925A6.512,6.512,0,0,1,231.8,209.5H230.09s-3.282,1.855-4.78,2c-1.57.143-4.352.642-4.352.642Z" transform="translate(-220.6 -193.051)"/></clipPath></defs><g transform="translate(-40.891 -81.077)"><g transform="translate(54.539 102.925)"><path class="a" d="M303.249,155.164c-1.926-4-1.855-9.061-3.068-13.2-3.567-12.272-13.271-22.047-25.258-27.113-28.9-12.129-35.532,12.129-65.927,17.124s-41.454-15.7-75.559-7.848c-34.034,7.848-25.9,28.54-25.186,45.735.713,17.124-36.317,21.4-42.952,42.168-6.636,20.691,16.268,29.253,13.342,44.308-3,14.983-23.688,23.545-17.766,37.1s11.131,16.41,53.3,5.708c42.239-10.7,96.251-15.7,135.564-7.848,39.242,7.848,67.425,24.259,77.771,19.264,10.274-4.923,4.852-30.324,3.282-38.172-3.425-17.267-17.552-31.893-17.267-49.445.143-11.416,11.559-16.624,12.415-28.254.785-10.56-5.28-20.049-11.987-27.9-3-3.5-7.706-6.707-10.06-10.631A4.784,4.784,0,0,1,303.249,155.164Z" transform="translate(-59.815 -111.494)"/><path class="b" d="M303.249,155.164c-1.926-4-1.855-9.061-3.068-13.2-3.567-12.272-13.271-22.047-25.258-27.113-28.9-12.129-35.532,12.129-65.927,17.124s-41.454-15.7-75.559-7.848c-34.034,7.848-25.9,28.54-25.186,45.735.713,17.124-36.317,21.4-42.952,42.168-6.636,20.691,16.268,29.253,13.342,44.308-3,14.983-23.688,23.545-17.766,37.1s11.131,16.41,53.3,5.708c42.239-10.7,96.251-15.7,135.564-7.848,39.242,7.848,67.425,24.259,77.771,19.264,10.274-4.923,4.852-30.324,3.282-38.172-3.425-17.267-17.552-31.893-17.267-49.445.143-11.416,11.559-16.624,12.415-28.254.785-10.56-5.28-20.049-11.987-27.9-3-3.5-7.706-6.707-10.06-10.631A4.784,4.784,0,0,1,303.249,155.164Z" transform="translate(-59.815 -111.494)"/></g><g transform="translate(41.4 100.718)"><g transform="translate(0 0)"><path class="c" d="M90.3,166.5l61.717,46.235-2.14,88.188" transform="translate(-55.41 -125.046)"/><line class="c" x1="4.852" y2="88.045" transform="translate(78.271 91.256)"/><line class="c" x1="0.428" y2="6.707" transform="translate(83.336 79.483)"/><line class="c" x1="6.207" y2="52.656" transform="translate(53.512 130.07)"/><line class="c" x1="6.921" y2="59.791" transform="translate(60.29 65.499)"/><line class="c" x1="23.545" y2="125.076" transform="translate(19.122 62.716)"/><line class="c" x1="1.998" y2="10.56" transform="translate(43.167 49.517)"/><line class="c" x2="10.132" y2="6.207" transform="translate(29.61 51.8)"/><line class="c" x1="15.768" y1="9.775" transform="translate(46.663 62.288)"/><line class="c" x1="11.131" y1="6.85" transform="translate(69.209 76.273)"/><line class="c" x1="9.133" y1="5.637" transform="translate(85.405 86.262)"/><line class="c" x1="12.914" y1="7.563" transform="translate(25.757 54.868)"/><line class="c" x1="15.84" y1="9.275" transform="translate(45.949 66.712)"/><line class="c" x1="11.059" y1="6.493" transform="translate(69.566 80.554)"/><line class="c" x1="8.99" y1="5.209" transform="translate(84.977 89.615)"/><line class="c" x1="9.489" y1="4.994" transform="translate(28.04 63.929)"/><line class="c" x1="15.34" y1="7.991" transform="translate(45.735 73.133)"/><line class="c" x1="11.844" y1="6.207" transform="translate(68.852 85.12)"/><line class="c" x1="9.133" y1="4.709" transform="translate(84.763 93.397)"/><line class="c" x1="6.85" y1="3.139" transform="translate(29.253 71.778)"/><line class="c" x1="16.981" y1="7.634" transform="translate(43.951 78.413)"/><line class="c" x1="11.701" y1="5.28" transform="translate(68.282 89.33)"/><line class="c" x1="8.99" y1="3.996" transform="translate(84.906 96.821)"/><line class="c" x1="19.264" y2="0.357" transform="translate(0 167.101)"/><line class="c" x1="23.474" y2="0.428" transform="translate(27.826 166.601)"/><line class="c" x1="17.481" y2="0.285" transform="translate(59.006 166.245)"/><line class="c" x1="10.346" y2="0.214" transform="translate(82.123 165.959)"/><line class="c" x1="16.339" y2="0.713" transform="translate(1.07 172.737)"/><line class="c" x1="23.759" y2="1.142" transform="translate(26.685 171.168)"/><line class="c" x1="16.981" y2="0.785" transform="translate(59.077 170.026)"/><line class="c" x1="10.417" y2="0.499" transform="translate(81.695 169.241)"/><line class="c" x1="12.914" y2="1.142" transform="translate(2.997 179.302)"/><line class="c" x1="24.83" y2="2.283" transform="translate(25.115 176.162)"/><line class="c" x1="16.767" y2="1.57" transform="translate(58.863 173.808)"/><line class="c" x1="10.845" y2="0.999" transform="translate(81.553 172.238)"/><line class="c" x1="10.56" y2="1.284" transform="translate(4.138 185.224)"/><line class="c" x1="25.186" y2="3.068" transform="translate(23.617 181.085)"/><line class="c" x1="17.481" y2="2.14" transform="translate(57.793 177.875)"/><line class="c" x1="9.846" y2="1.213" transform="translate(82.123 175.805)"/><path class="c" d="M120.026,236.4l4.638,1.855-1.213,13.485-5.351-1.356Z" transform="translate(-63.375 -145.073)"/><path class="c" d="M146.6,258.645l1-11.345,3.5,1.427-.642,10.917Z" transform="translate(-71.54 -148.195)"/><path class="c" d="M79.325,220.1l7.135,2.854-2.854,17.053L76.4,238.151Z" transform="translate(-51.428 -140.403)"/><path class="c" d="M167.8,255.3l3.425,1.356-.071,8.99-3.353-.856Z" transform="translate(-77.614 -150.487)"/><path class="c" d="M384.917,166.5,323.2,212.735l2.141,88.188" transform="translate(-122.137 -125.046)"/><line class="c" x2="4.852" y2="88.045" transform="translate(214.548 91.256)"/><line class="c" x2="0.428" y2="6.707" transform="translate(213.906 79.483)"/><line class="c" x2="6.207" y2="52.656" transform="translate(237.951 130.07)"/><line class="c" x2="6.921" y2="59.791" transform="translate(230.459 65.499)"/><line class="c" x2="23.545" y2="125.076" transform="translate(255.003 62.716)"/><line class="c" x2="1.998" y2="10.56" transform="translate(252.506 49.517)"/><line class="c" y1="6.207" x2="10.132" transform="translate(257.929 51.8)"/><line class="c" y1="9.775" x2="15.768" transform="translate(235.24 62.288)"/><line class="c" y1="6.85" x2="11.131" transform="translate(217.331 76.273)"/><line class="c" y1="5.637" x2="9.133" transform="translate(203.132 86.262)"/><line class="c" y1="7.563" x2="12.914" transform="translate(258.999 54.868)"/><line class="c" y1="9.275" x2="15.84" transform="translate(235.882 66.712)"/><line class="c" y1="6.493" x2="11.059" transform="translate(217.045 80.554)"/><line class="c" y1="5.209" x2="8.99" transform="translate(203.703 89.615)"/><line class="c" y1="4.994" x2="9.489" transform="translate(260.141 63.929)"/><line class="c" y1="7.991" x2="15.34" transform="translate(236.595 73.133)"/><line class="c" y1="6.207" x2="11.844" transform="translate(216.974 85.12)"/><line class="c" y1="4.709" x2="9.133" transform="translate(203.774 93.397)"/><line class="c" y1="3.139" x2="6.85" transform="translate(261.568 71.778)"/><line class="c" y1="7.634" x2="16.981" transform="translate(236.738 78.413)"/><line class="c" y1="5.28" x2="11.701" transform="translate(217.688 89.33)"/><line class="c" y1="3.996" x2="8.99" transform="translate(203.774 96.821)"/><line class="d" x2="19.264" y2="0.357" transform="translate(278.406 167.101)"/><line class="c" x2="23.474" y2="0.428" transform="translate(246.37 166.601)"/><line class="c" x2="17.481" y2="0.285" transform="translate(221.184 166.245)"/><line class="c" x2="10.346" y2="0.214" transform="translate(205.201 165.959)"/><line class="c" x2="16.339" y2="0.713" transform="translate(280.261 172.737)"/><line class="c" x2="23.759" y2="1.142" transform="translate(247.226 171.168)"/><line class="c" x2="16.981" y2="0.785" transform="translate(221.612 170.026)"/><line class="c" x2="10.417" y2="0.499" transform="translate(205.558 169.241)"/><line class="c" x2="12.914" y2="1.142" transform="translate(281.76 179.302)"/><line class="c" x2="24.83" y2="2.283" transform="translate(247.726 176.162)"/><line class="c" x2="16.767" y2="1.57" transform="translate(222.04 173.808)"/><line class="c" x2="10.845" y2="0.999" transform="translate(205.273 172.238)"/><line class="c" x2="10.56" y2="1.284" transform="translate(282.972 185.224)"/><line class="c" x2="25.186" y2="3.068" transform="translate(248.867 181.085)"/><line class="c" x2="17.481" y2="2.14" transform="translate(222.397 177.875)"/><line class="c" x2="9.846" y2="1.213" transform="translate(205.701 175.805)"/><path class="c" d="M377.338,236.4l-4.638,1.855,1.213,13.485,5.351-1.356Z" transform="translate(-136.319 -145.073)"/><path class="c" d="M351.6,258.645l-1-11.345-3.5,1.427.642,10.917Z" transform="translate(-128.984 -148.195)"/><path class="c" d="M416.635,220.1l-7.135,2.854,2.854,17.053,7.206-1.855Z" transform="translate(-146.862 -140.403)"/><path class="c" d="M330.825,255.3l-3.425,1.356.071,8.99,3.353-.856Z" transform="translate(-123.34 -150.487)"/><path class="c" d="M94,372.788c16.839-3.068,39.456-7.278,56.652-10.488" transform="translate(-56.47 -181.143)"/><path class="c" d="M61.1,381.711s7.064-1.284,17.481-3.211" transform="translate(-47.044 -185.785)"/><path class="c" d="M393.7,374.041c-17.98-4.281-47.233-11.131-67.5-14.841" transform="translate(-122.996 -180.255)"/><path class="c" d="M442.516,384.34s-4.21-1.07-10.917-2.64" transform="translate(-153.194 -186.702)"/><path class="c" d="M147.143,186.171l4-44.879L121.6,108.4" transform="translate(-64.378 -108.4)"/><path class="c" d="M332.483,190.737,330.2,141.863,366.018,108.4" transform="translate(-124.142 -108.4)"/></g></g><g transform="translate(143.871 295.002)"><path class="e" d="M208.836,394.256s-11.059,2-18.979,5.137,21.334,2.783,15.055,3.924c-6.35,1.213-25.686,3.924-18.194,8.277s64.857,5.137,81.41,1.213c16.624-3.924-29.253-13.414-20.977-16.981s16.981,0,16.624-4.709c-.428-4.709-16.2-10.488-18.765-10.417s14.056,6.85,4.566,8.776C240.016,391.474,221.465,389.476,208.836,394.256Z" transform="translate(-185.019 -380.699)"/><path class="f" d="M208.836,394.256s-11.059,2-18.979,5.137,21.334,2.783,15.055,3.924c-6.35,1.213-25.686,3.924-18.194,8.277s64.857,5.137,81.41,1.213c16.624-3.924-29.253-13.414-20.977-16.981s16.981,0,16.624-4.709c-.428-4.709-16.2-10.488-18.765-10.417s14.056,6.85,4.566,8.776C240.016,391.474,221.465,389.476,208.836,394.256Z" transform="translate(-185.019 -380.699)"/></g><g transform="translate(133.655 81.586)"><g transform="translate(4.771 50.597)"><path class="g" d="M230.266,156.282s-7.278,2.64-9.775,3.71-10.417,2-11.63,2.783-32.107,34.89-31.465,35.532,7.634.928,9.632.5c2-.5,27.184-24.83,27.184-24.83s3.282.143,3.282,2.64,1.57,29.467,1.57,29.467l32.107-.642.143-32.749s.285-3.282,2.783-3.068c2.5.143,29.039,9.632,29.039,9.632l7.634-6.493s-26.827-10.417-31.965-13.628c-5.137-3.282-6.493-6.636-8.562-6.636S230.266,156.282,230.266,156.282Z" transform="translate(-177.386 -152.5)"/><g class="h"><path class="e" d="M286.7,170.994l-1.784,1.926c-1.926-.785-4.067-1.57-6.136-2.426l1.427-2.14c-.357-.143-.642-.285-1-.428l-1.427,2.141c-2.14-.856-4.21-1.712-5.993-2.426L273,165.358c-.357-.143-.642-.285-1-.428l-1.213,2.283c-1.855-.785-3.211-1.284-3.639-1.57-.571-.285-1.641-.856-3-1.57l.428-2.426a4.358,4.358,0,0,1-1-.5l-.428,2.355c-2.069-1.07-4.424-2.426-6.421-3.567l-.214-3.139c-.428-.357-.785-.713-1.142-1l.214,3.5a24.786,24.786,0,0,1-2.64-1.712c-2.069-1.712-2.355-1.712-2.5-1.712v.071c-.357-1.855-.571-3.139-.571-3.139l-1.07.143c0,.143.214,1.356.571,3.068l-2.5.5v-3.639l-1.07.214v3.639l-4.78,1v-3.639l-1.07.214v3.639l-5.28,1.07-.214-3.639-1.07.214.143,3.639-7.634,1.57-.428-2.64a8.657,8.657,0,0,1-1,.357l.428,2.5-3.139.642-.285-1.926c-.071.071-.214.071-.285.143-.214.071-.5.214-.785.285l.285,1.784-5.565,1.142-.285-1.641-1.07.214.285,1.641-3.5.713-.571-1.57a1.7,1.7,0,0,0-.5.214,5.252,5.252,0,0,0-.428.357l.428,1.213-3.639,4.21-.785-1.284a8.141,8.141,0,0,1-.785.785l.856,1.284-6.707,7.848-1.356-1.284c-.214.285-.5.5-.714.785l1.356,1.284-5.066,5.993-1.641-1.213a7.812,7.812,0,0,1-.714.785l1.641,1.213-5.993,7.064-1.926-1.142c-.214.285-.5.571-.714.856l1.926,1.142-5.137,5.993c.428.071.856.071,1.284.143l4.78-5.565,1.57.928-4.424,4.709h1.427l3.853-4.21,1.641.928-3,3.068a.262.262,0,0,0,.214-.071c.571-.143,3.139-2.355,6.493-5.351l3.924-4,.285.214c.285-.214.5-.5.785-.713l-.285-.214,4.78-4.923.5.5c.285-.214.5-.5.785-.714l-.5-.5,5.708-5.851.571.856a8.141,8.141,0,0,0,.785-.785l-.571-.928,2.212-2.283.428,1.213c.357-.357.642-.571.856-.785l-.428-1.07,1.784-.357.214,1.142a3.979,3.979,0,0,1,1.142.5l-.285-1.855,5.423-1,.785,5.209-4.852.856a6.162,6.162,0,0,0,.071,1.07l4.923-.856.642,4.424-5.066,1.356-.143-1.07c.143,2.854.357,6.279.5,9.7l.928,5.423c-.214.071-.357.143-.571.214,0,.357.071.785.071,1.142.214-.071.5-.214.714-.285l1.213,7.278h1.07l-1.284-7.634a49.992,49.992,0,0,1,4.994-1.57l1.356,9.133h1.07l-1.427-9.347c1.213-.285,2.355-.571,3.5-.785l1.641,10.06h1.07l-1.641-10.2c1.284-.214,2.5-.357,3.782-.5l.5,9.918-.714.714h1.57l.285-.285-.5-10.488c1.284-.071,2.5-.143,3.71-.143l.071,10.845h1.07l-.071-10.774c1.5,0,3,.071,4.424.214l-.071,10.488h1.07l.071-10.346c1.784.214,3.5.5,5.066.785v-1.07c-1.641-.357-3.282-.571-5.066-.785V187.69c1.712.071,3.425.214,5.066.428v-1.07c-1.712-.214-3.353-.357-5.137-.428v-7.492l5.137-1v-1.07l-5.137,1v-3.924l5.137-.856v-.357a2.5,2.5,0,0,1,.143-.714l-5.28.928v-5.708l4.566-.856c.357,1.356.642,2.5.928,3.282l1-.357a20.259,20.259,0,0,1-.785-2.783l3.71,2.355.071,1.284c.357.071.713.214,1.07.285l-.071-.856,2.711,1.712c1.284.428,2.711.856,4.21,1.356l-1.427-.928.357-2.212c1.57.785,3.211,1.641,4.994,2.5l-.856,1.641c.357.143.714.214,1,.357l.785-1.5c1.712.856,3.5,1.712,5.208,2.569l-.571.856c.357.143.713.214,1.07.357l.5-.785c1.712.856,3.425,1.641,4.994,2.426l-.214.214a9.376,9.376,0,0,0,1.07.357l.143-.143,1.284.642c.642.214,1,.357,1,.357l.785-.714c-.785-.357-1.57-.714-2.355-1.142l3-3.282c1.142.428,2.212.856,3.068,1.213l.928-.785q-1.391-.535-3.211-1.284l1.784-1.926C287.481,171.28,287.124,171.137,286.7,170.994Zm-46.663-3.5-4.852.928-.214-4.067,5.066-1.142Zm-.071-8.277V162l-5.137,1.142-.143-2.925Zm-5.209,22.261.285,5.779c-1.57.214-3.139.5-4.638.785l-.928-5.494Zm-.071-1.07-5.351,1.07-.714-4.281,5.851-1Zm-.285-5.28-5.922,1-.856-5.28,6.564-1.213Zm-6.136,6.564-3.353.642-.642-4.424,3.353-.571Zm5.851-13.128-6.636,1.213-.571-3.71,7.064-1.57Zm-.428-7.991.143,2.925-7.135,1.641-.5-3Zm-19.336,4,.5,3.211-2.355.571-.143-.428-.285.285-1.07-3Zm-4.281,1.07,1.213,3.425-3,3.211-1.712-2.64Zm-4.21,4.852,1.641,2.64-6.35,6.85-1.855-1.784Zm-7.206,8.491,1.855,1.784-5.066,5.423-1.784-1.356Zm-9.989,14.555-1.641-.928,5.922-6.992,1.784,1.284Zm2.569,1.5-1.641-1,5.993-6.493,1.712,1.284Zm6.778-6.921-1.712-1.284,4.923-5.351,1.641,1.57Zm5.708-5.779L202,180.7l6.136-6.635,1.427,2.212Zm6.564-6.85-1.427-2.212,2.783-3,1,2.783Zm3.567-3.139-1-3,2.212-.5.5,3.211Zm1.5-7.991,5.494-1.142.5,3.139-5.494,1.213Zm1.284,7.492-.571-3.282,5.423-1.213.5,3.5ZM221.982,163l3.211-.642.5,3-3.211.714Zm1.142,7.634-.571-3.5,3.211-.714.571,3.639Zm.143,1.07,3.282-.642.856,5.209-3.353.571ZM219.7,190.615l-1-5.922,5.28-1.07.856,5.637C222.981,189.688,221.269,190.187,219.7,190.615Zm1.142,6.778-.928-5.708c1.57-.428,3.282-.928,5.137-1.356l.856,5.494A45.891,45.891,0,0,0,220.841,197.394Zm5.066-8.348-.856-5.565,3.425-.642.928,5.494A27.564,27.564,0,0,0,225.906,189.046Zm1,6.493-.856-5.494c1.142-.285,2.283-.5,3.425-.785l.928,5.494C229.26,195.039,228.118,195.253,226.905,195.538Zm4.566-.928-.928-5.494c1.427-.285,2.925-.5,4.5-.713l.285,5.779A35.345,35.345,0,0,0,231.472,194.611Zm3.71-25.115,4.852-.928v5.565l-4.566.785Zm.357,6.493,4.566-.785v4.138l-4.352.856Zm.214,5.28,4.281-.856v6.35a39.306,39.306,0,0,0-4.067.428Zm.642,12.772-.285-5.779c1.284-.143,2.64-.285,4-.428V193.9C238.963,193.9,237.679,193.969,236.395,194.04Zm9.275.071q-2.141-.214-4.5-.214v-6.136c1.5-.071,3-.143,4.5-.143Zm.071-7.492c-1.5,0-3,0-4.5.071V180.2l4.566-.928Zm0-8.419-4.566.928v-4.067l4.638-.785Zm0-4.994-4.638.785v-5.637l4.709-.856Zm.071-6.778-4.709.856v-4.352l4.709-1.07Zm0-5.708-4.78,1.07v-2.783l4.78-1Zm1.07-2.925,2.711-.571c.143.785.285,1.641.5,2.5l-3.139.714Zm0,8.419v-4.638l3.353-.785c.285,1.57.642,3.139.928,4.566Zm4.281-6.707h0c-.214-.785-.357-1.5-.5-2.212a18.209,18.209,0,0,1,1.57,1.284,29.25,29.25,0,0,0,3.425,2.212l.214,3.211c-2.212-2-4.21-4.281-4.281-4.281l-.428.357Zm1.5,5.779-.285.428c-.357-1.427-.713-3.068-1-4.709.856.928,2.64,2.783,4.424,4.352a.985.985,0,0,0,.285.214l.143,2Zm9.275,5.779L257.3,168.14l-.143-2c1.213.713,3,1.641,5.137,2.783Zm.5-3.211c-2.5-1.284-4.424-2.355-5.423-2.925l-.285-3.5c2,1.142,4.281,2.355,6.136,3.353Zm6.35,3.211c-1.926-.928-3.71-1.855-5.351-2.64l.5-3.068c1.213.642,2.212,1.142,2.711,1.427.428.214,1.784.785,3.567,1.5Zm6.279,3.068c-1.784-.856-3.567-1.712-5.28-2.569l1.5-2.854c1.712.714,3.782,1.5,5.851,2.355Zm6.136,2.925c-1.712-.785-3.425-1.641-5.137-2.5l2.14-3.139c2.069.785,4.138,1.641,5.993,2.355Z" transform="translate(-178.164 -152.586)"/></g><path class="i" d="M230.266,156.282s-7.278,2.64-9.775,3.71-10.417,2-11.63,2.783-32.107,34.89-31.465,35.532,7.634.928,9.632.5c2-.5,27.184-24.83,27.184-24.83s3.282.143,3.282,2.64,1.57,29.467,1.57,29.467l32.107-.642.143-32.749s.285-3.282,2.783-3.068c2.5.143,29.039,9.632,29.039,9.632l7.634-6.493s-26.827-10.417-31.965-13.628c-5.137-3.282-6.493-6.636-8.562-6.636S230.266,156.282,230.266,156.282Z" transform="translate(-177.386 -152.5)"/><path class="i" d="M258.7,200c.428,4.138.571,12.129.571,12.129" transform="translate(-200.683 -166.109)"/><path class="i" d="M257.369,188.248c-.714-4.78-2.069-21.548-2.069-21.548" transform="translate(-199.709 -156.568)"/><line class="c" y1="2.355" x2="7.991" transform="translate(75.569 14.769)"/><line class="c" y1="0.571" x2="2.569" transform="translate(84.631 13.842)"/><line class="c" x2="10.346" transform="translate(77.567 16.553)"/><path class="c" d="M215.9,178.3l9.2,3.068h-5.066" transform="translate(-188.421 -159.892)"/><line class="c" x1="2.355" transform="translate(27.622 21.69)"/><path class="c" d="M258.942,170.982c0,.428-.214.785-.571.785-.285,0-.571-.357-.571-.785s.214-.785.571-.785C258.656,170.126,258.942,170.554,258.942,170.982Z" transform="translate(-200.425 -157.568)"/><path class="c" d="M260.242,183.285c0,.428-.214.785-.571.785-.285,0-.571-.357-.571-.785s.214-.785.571-.785C259.956,182.5,260.242,182.857,260.242,183.285Z" transform="translate(-200.798 -161.095)"/><ellipse class="c" cx="0.571" cy="0.785" rx="0.571" ry="0.785" transform="translate(59.373 31.394)"/><path class="c" d="M261.942,210.581c0,.428-.214.785-.571.785-.285,0-.571-.357-.571-.785s.214-.785.571-.785C261.728,209.725,261.942,210.082,261.942,210.581Z" transform="translate(-201.285 -168.913)"/></g><g transform="translate(38.42)"><g transform="translate(3.109 9.199)"><path class="j" d="M244.809,155.452l-.856.571a6.146,6.146,0,0,0-1.926,2.14L240.1,161.73l4.994,4.352,4-5.708,7.42,4.852,2.783-6.207-1.784-2.5a3.754,3.754,0,0,0-2.854-1.57C251.659,154.524,245.594,154.239,244.809,155.452Z" transform="translate(-232.112 -111.699)"/><g transform="translate(11.912 37.973)"><path class="g" d="M245.6,148.7s.285,8.205,1.213,8.562c.928.285,3.567,2.355,5.137,2.355s3.71-3.068,3.853-3.567-.642-8.348-.642-8.348l-8.99.928Z" transform="translate(-245.6 -147.7)"/><g class="k"><path class="l" d="M255.232,147.6l-8.99.928-.642.143s.071,2.64.357,4.994a21.826,21.826,0,0,0,5.565.357,16.287,16.287,0,0,0,4.21-.785C255.518,150.811,255.232,147.6,255.232,147.6Z" transform="translate(-245.6 -147.671)"/></g><path class="i" d="M245.6,148.7s.285,8.205,1.213,8.562c.928.285,3.567,2.355,5.137,2.355s3.71-3.068,3.853-3.567-.642-8.348-.642-8.348l-8.99.928Z" transform="translate(-245.6 -147.7)"/></g><path class="j" d="M233.967,129.405s-1.712-3.567-4.21-2.14,1.07,6.065,3.282,7.135c2.14,1.07,3.068.928,3.068.928Z" transform="translate(-228.905 -103.776)"/><path class="j" d="M264.9,127.776s.714-3.924,3.425-3.211c2.783.642.571,6.136-1.213,7.777s-2.711,1.712-2.711,1.712Z" transform="translate(-239.074 -103.074)"/><g transform="translate(0.343)"><path class="g" d="M233.32,119.324s.071.214.143.5c.642,2,3.068,9.2,4,11.416,1.07,2.64,5.28,5.565,10.845,4.638s7.135-7.42,7.135-9.918-1.213-21.69-1.213-21.69-6.636-6.85-12.129-8.99c-5.423-2.14-8.062.285-10.06,4.067-2,3.71-3.068,5.922-2.5,8.348C230.252,110.191,233.32,119.324,233.32,119.324Z" transform="translate(-229.386 -94.479)"/><g class="m"><path class="l" d="M235.561,109.221c2.069-2.283,2.069-6.921,2.069-6.921a42.015,42.015,0,0,0,10.916,5.351,21.479,21.479,0,0,0,6.065.856c-.143-2.426-.285-4.138-.285-4.138s-6.636-6.85-12.129-8.99c-5.423-2.14-8.062.285-10.06,4.067-2,3.71-3.068,5.922-2.5,8.348.285,1.142,1.07,3.639,1.855,5.993C231.922,113.288,233.706,111.218,235.561,109.221Z" transform="translate(-229.414 -94.507)"/></g><g class="m"><path class="l" d="M255.381,139.76c-2.283,3.71-5.066,5.066-9.7,3.71-4.21-1.284-7.206-6.992-7.777-8.134.785,2.355,1.641,4.78,2.141,5.922,1.07,2.64,5.28,5.565,10.845,4.638s7.135-7.42,7.135-9.918c0-.856-.143-3.567-.357-6.778" transform="translate(-231.825 -104.427)"/></g><path class="i" d="M233.32,119.324s.071.214.143.5c.642,2,3.068,9.2,4,11.416,1.07,2.64,5.28,5.565,10.845,4.638s7.135-7.42,7.135-9.918-1.213-21.69-1.213-21.69-6.636-6.85-12.129-8.99c-5.423-2.14-8.062.285-10.06,4.067-2,3.71-3.068,5.922-2.5,8.348C230.252,110.191,233.32,119.324,233.32,119.324Z" transform="translate(-229.386 -94.479)"/></g><path class="n" d="M241.722,117.37c.071.642-.143,1.213-.571,1.213-.357.071-.785-.428-.856-1.07s.143-1.213.571-1.213S241.65,116.728,241.722,117.37Z" transform="translate(-232.164 -100.731)"/><path class="n" d="M256.922,115.668c.071.642-.143,1.213-.571,1.213-.357.071-.785-.428-.856-1.07s.143-1.213.571-1.213C256.493,114.526,256.85,115.025,256.922,115.668Z" transform="translate(-236.519 -100.241)"/><path class="o" d="M237.1,110.933s1.855-2.64,4.638-1.712" transform="translate(-231.253 -98.646)"/><path class="c" d="M251,126.12l1.57-1.5L251.5,118.2" transform="translate(-235.235 -101.275)"/><path class="c" d="M243.6,132.4a4.483,4.483,0,0,0,4.067,2.783" transform="translate(-233.115 -105.343)"/></g><path class="p" d="M234.431,94.225s1.855,3.567.642,5.565-3.425,2.5-4.352,3.567-.642,6.35,0,7.777a27.361,27.361,0,0,1,1.213,4.5s-3.853-6.85-4.994-8.847c-1.07-2-3.853-8.99-1.427-12.843,2.5-3.853,5.137-.928,6.065-3.068s1.213-6.493,8.99-8.7c7.777-2.14,11.63,2.14,12.7,4.638s4.994,4.5,7.92,3.71.928-1.712.928-1.712,3.425,0,2.64,4.78-4.994,7.92-10.845,8.063C248.059,101.859,238.641,100.29,234.431,94.225Z" transform="translate(-224.547 -81.586)"/><path class="q" d="M237.5,93.091s6.992-6.207,11.059-5.993c4.067.143,6.207,7.135,11.059,6.992" transform="translate(-228.258 -83.163)"/><path class="q" d="M235.4,96.4l2.64,2.283s3.924-3.924,8.99-2.14,9.632,7.492,14.341,6.992,6.35-5.351,5.708-8.134" transform="translate(-227.657 -85.544)"/><path class="q" d="M234.012,98.351s-2.925-.785-4.21,1.641.357,5.851.357,5.851" transform="translate(-225.912 -86.355)"/><path class="q" d="M236.653,100s-1.784.143-1.784,2.64c0,2.426-.5,4.067-2.283,4.852s-2.426,1.5-1.784,2.426" transform="translate(-226.27 -86.862)"/><path class="n" d="M258.507,112.713c-.571-1.57-2.925-2.14-5.137-2.426-2.141-.285-7.777,1.356-8.776,1.641a4.512,4.512,0,0,0-4.138.285c-1.284,0-6.85-.071-8.776.785-2.069.928-4.21,2.069-4.281,3.71-.071,1.284,1.07,1.926,2,2.283.428,2.069,2.069,5.209,5.851,4.994,4.78-.214,6.778-2.925,6.707-5.351-.071-1.5-.428-4.21-.5-5.28a2.775,2.775,0,0,1,2.64-.071h0c.143,1.142.571,3.782.928,5.209.571,2.355,3.211,4.424,7.848,3.353,3.639-.856,4.424-4.281,4.281-6.421A2.362,2.362,0,0,0,258.507,112.713Zm-23.26,9.918c-3.782.214-4.424-4.067-4.5-4.281-.071-.285-.285-.571-.571-.571-.357-.071-1.427-.428-1.356-.856.071-.713,1.213-1.57,3.5-2.569a15.054,15.054,0,0,1,4.281-.571c1.284-.071,2.569-.071,3.425-.071.143,1.142.428,3.71.5,5.066C240.67,119.99,239.6,122.416,235.247,122.63Zm20.905-8.205a.785.785,0,0,0-.428.713c0,.214.571,4.5-3.139,5.28-4.21,1-5.851-1.07-6.136-2.283-.285-1.356-.714-3.853-.856-4.994.856-.285,2.069-.571,3.353-.856a13.472,13.472,0,0,1,4.281-.571c2.426.357,3.782.856,4,1.5C257.366,113.64,256.438,114.282,256.153,114.425Z" transform="translate(-225.363 -89.799)"/></g><path class="r" d="M202.2,337.293l7.278,13.057,1.57-9.989C211.119,340.361,205.054,337.008,202.2,337.293Z" transform="translate(-179.725 -154.842)"/><g transform="translate(59.943 185.305)"><g transform="translate(0 2.905)"><path class="p" d="M261.054,345.463s-3.425,1.855-4.5,3.568-2.783,2.355-1.213,4.495a24.71,24.71,0,0,1,3.853,9.133c.642,3.282,3.068,5.922,5.708,7.92s6.85,2.5,7.278.143c.5-2.355-5.28-11.773-5.708-13.485a10.239,10.239,0,0,1-.285-4.638C266.334,350.886,263.694,344.536,261.054,345.463Z" transform="translate(-254.712 -345.371)"/><path class="j" d="M272.263,373.035a4.835,4.835,0,0,1-3.853.285c-4.352-1.213-6.35-6.35-8.562-11.915a33.261,33.261,0,0,0-4.709-8.205c-.5.714-.642,1.427.214,2.64a24.71,24.71,0,0,1,3.853,9.133c.642,3.282,3.068,5.922,5.708,7.92C267.554,374.819,271.763,375.318,272.263,373.035Z" transform="translate(-254.719 -347.614)"/></g><path class="j" d="M266.276,341.3s-5.137,3.282-5.28,4.78a19.047,19.047,0,0,0,1.855,7.135c.642.785,2.5-2.64,3.068-1.712.642.928,1.57,2.355,1.57,2.355l.642-4.21Z" transform="translate(-256.51 -341.3)"/></g><g transform="translate(0 179.242)"><g transform="translate(27.898 5.35)"><path class="g" d="M211.512,340.3,209.8,363.56l9.989,13.7.714-31.322Z" transform="translate(-209.8 -340.3)"/><g class="s"><path class="l" d="M211.2,349.861c.642.071,1.284.071,2,.143a18.484,18.484,0,0,1,7.563,2.5l.143-6.635-8.99-5.565Z" transform="translate(-210.201 -340.3)"/></g><path class="i" d="M211.512,340.3,209.8,363.56l9.989,13.7.714-31.322Z" transform="translate(-209.8 -340.3)"/><path class="j" d="M220.146,366.809a15.551,15.551,0,0,0-9.775-4.709l-.571,7.706,9.918,13.628Z" transform="translate(-209.8 -346.546)"/></g><path class="p" d="M208.729,381.318a24.244,24.244,0,0,0,0-7.92c-.785-3.282-6.065-12.129-11.2-17.552s-12.272-16.125-16.767-20.477-10.06-3.282-10.06,4.067c0,7.278,4.5,19.835,11.2,26.542,6.636,6.635,16.125,14.127,18.622,15.34C202.95,382.531,205.733,383.6,208.729,381.318Z" transform="translate(-170.7 -332.802)"/><path class="j" d="M209.015,377.18a41.151,41.151,0,0,0-7.492-7.706c-5.708-4.638-10.06-15.055-12.7-21.548-1.641-4-5.423-9.2-8.062-12.558h0c-4.5-4.352-10.06-3.282-10.06,4.067,0,7.278,4.5,19.835,11.2,26.542,6.636,6.636,16.125,14.127,18.622,15.34s5.28,2.355,8.205,0A31.724,31.724,0,0,0,209.015,377.18Z" transform="translate(-170.7 -332.802)"/><path class="j" d="M208.8,381.089c-2-3.068-5.851-6.85-10.346-10.988-7.278-6.636-13.342-26.97-18.765-33.178-3.282-3.782-6.564-1.926-8.562.143a9.487,9.487,0,0,0-.428,3c0,7.278,4.5,19.835,11.2,26.542,6.636,6.635,16.125,14.127,18.622,15.34s5.28,2.355,8.205,0A5.943,5.943,0,0,1,208.8,381.089Z" transform="translate(-170.7 -333.357)"/></g><g transform="translate(22.404 98.367)"><path class="e" d="M222.863,242.318h0l1.855-19.692s13.842-3.853,20.62-3.068a84.917,84.917,0,0,1,14.413,3.282s2.64,25.757,5.708,38.315,4.5,31.18,4.638,38.172-4.5,9.49-5.708,10.988c-1.213,1.57-9.133,10.988-9.133,10.988s-4.994-3.068-6.493-8.062c-1.57-4.994-.642-6.992-.642-6.992l11.63-8.847s-4.78-28.4-8.562-34.747c-3.71-6.35-6.493-8.847-10.56-9.918s-4.21-.642-9.275,2.783a60.939,60.939,0,0,0-8.99,7.42l-3.782,52.513a93.282,93.282,0,0,0-9.49-7.92,61.715,61.715,0,0,0-6.992-4.067s6.279-47.091,9.347-49.731C214.658,251.166,222.863,242.318,222.863,242.318Z" transform="translate(-202.1 -219.452)"/><g class="t"><path class="u" d="M275.611,309.953c-1.784,0-4.566.143-6.279-4-2.783-6.421-5.208-25.186-9.561-34.462-4.281-9.2-12.914-17.2-17.552-17.2s5.851,6.778,5.851,6.778-4-1.855-4.923-1.855-12.272,6.136-15.982,8.277-3.068,4-4.281,9.561c-1.07,4.709-1.641,36.246-1.784,45.664,1.712,1.5,3,2.711,3,2.711l3.782-52.513a56.213,56.213,0,0,1,8.99-7.42c5.137-3.425,5.28-3.853,9.275-2.783,4.067,1.07,6.85,3.567,10.56,9.918s8.562,34.747,8.562,34.747l-11.63,8.847s-.928,2,.642,6.992,6.493,8.063,6.493,8.063,7.92-9.49,9.133-10.988S275.468,316.374,275.611,309.953Z" transform="translate(-207.544 -229.436)"/></g><path class="i" d="M222.863,242.318h0l1.855-19.692s13.842-3.853,20.62-3.068a84.917,84.917,0,0,1,14.413,3.282s2.64,25.757,5.708,38.315,4.5,31.18,4.638,38.172-4.5,9.49-5.708,10.988c-1.213,1.57-9.133,10.988-9.133,10.988s-4.994-3.068-6.493-8.062c-1.57-4.994-.642-6.992-.642-6.992l11.63-8.847s-4.78-28.4-8.562-34.747c-3.71-6.35-6.493-8.847-10.56-9.918s-4.21-.642-9.275,2.783a60.939,60.939,0,0,0-8.99,7.42l-3.782,52.513a93.282,93.282,0,0,0-9.49-7.92,61.715,61.715,0,0,0-6.992-4.067s6.279-47.091,9.347-49.731C214.658,251.166,222.863,242.318,222.863,242.318Z" transform="translate(-202.1 -219.452)"/><path class="i" d="M283,328.7s1,6.421,1.427,7.42" transform="translate(-225.278 -250.752)"/><path class="c" d="M258.584,221.8,257.3,241.421a5.363,5.363,0,0,0,2.569-1.427c.928-1.07,1.784-9.632,1.784-9.632" transform="translate(-217.915 -220.125)"/><path class="c" d="M243.9,223.1l5.066-.785.357-1.213" transform="translate(-214.076 -219.924)"/><path class="c" d="M265.039,221.3l-.428,1.07-2.711-.143" transform="translate(-219.233 -219.982)"/><path class="c" d="M268.714,221.3l-.214,1.427,4.21.928" transform="translate(-221.124 -219.982)"/><path class="c" d="M234.4,250.1s4-.357,8.205,4.709" transform="translate(-211.354 -228.231)"/><path class="c" d="M243.6,252.4s.928,0,3.282,3.639" transform="translate(-213.99 -228.892)"/></g><g transform="translate(3.127 51.31)"><path class="j" d="M230.7,191.743s2.5-2.14,3.425-3.068,1.213-3.282,2.355-1.855c1.07,1.427,1.07,3.068.285,3.567a17.556,17.556,0,0,0-3.068,2C233.2,192.956,229.49,193.313,230.7,191.743Z" transform="translate(-190.949 -162.918)"/><path class="j" d="M279.376,177.648s-3-1.356-4.21-1.926c-1.142-.642-2.14-2.711-2.783-1.07s-.143,3.282.785,3.5a17.374,17.374,0,0,1,3.567,1C277.378,179.575,281.088,178.79,279.376,177.648Z" transform="translate(-202.877 -159.383)"/><g transform="translate(41.467)"><path class="p" d="M233.2,164.071l.642,22.19,2.783,20.691,2.64-.5-3.282-20.763-.143-22.19Z" transform="translate(-233.2 -156.365)"/><path class="p" d="M270.2,153.785s4.78,17.053,5.28,19.05,1.712,13.2,2,14.27-2,17.409-2,17.409l2.64.642,1.855-19.692-2.141-12.415-4.78-19.55Z" transform="translate(-243.801 -153.5)"/><path class="j" d="M239.855,218l-1.142-1-1.213,1.926.357,3.353,2.64-.5Z" transform="translate(-234.432 -171.693)"/><path class="j" d="M280.5,220.226l-.642-1.926L278,219.584c-.285,2.069-.5,3.5-.5,3.5l2.64.642Z" transform="translate(-245.892 -172.065)"/><path class="p" d="M251.055,163.394s-8.7-4.994-8.99-3.425.143,9.632,1.07,9.275c.928-.285,8.063-4.352,8.063-4.352s9.133,5.137,9.347,2.64c.143-2.5-.285-8.99-2.5-9.133C255.907,158.328,251.055,163.394,251.055,163.394Z" transform="translate(-235.715 -154.904)"/><line class="v" y1="2.069" x2="4.566" transform="translate(16.767 6.992)"/><line class="v" x2="4.138" y2="0.928" transform="translate(16.767 9.061)"/><path class="v" d="M248.3,164.8l3.567,1.284-3.425,1.07" transform="translate(-237.526 -156.737)"/><path class="v" d="M255.684,164.6s.285,1.784,0,2.212-1.356.285-1.784-.285" transform="translate(-239.131 -156.68)"/></g><g transform="translate(70.143 18.327)"><g transform="translate(16.844 0.651)"><g transform="translate(3.098)"><path class="g" d="M302.668,188.448s-2.426-1-.714-2.711c1.784-1.712,19.835-5.708,23.26-5.637s5.351,2.569,6.065,5.423-.928,5.851-4.566,7.278-19.05,3.5-21.476,3.139C302.882,195.511,302.668,188.448,302.668,188.448Z" transform="translate(-301.343 -180.099)"/><g class="w"><path class="e" d="M331.854,185.78l-1.142.214c-.214-1.284-.428-2.5-.714-3.782h.143a5.616,5.616,0,0,0-1.57-1.284c.071.143.071.357.143.5-1.57.428-3.5.856-5.423,1.356a14.855,14.855,0,0,0-.856-2.283l-1.07.214a18.068,18.068,0,0,1,.856,2.355c-2.426.642-4.923,1.284-7.278,1.855a17.26,17.26,0,0,0-1.284-2.569,8.876,8.876,0,0,0-1.142.285,18.428,18.428,0,0,1,1.356,2.64c-2.212.571-4.21,1.07-5.708,1.427a12.283,12.283,0,0,0-1.712-2.426c-.357.143-.714.214-1.07.357a12.538,12.538,0,0,1,1.712,2.355c-.357.071-.642.143-.928.214a8.175,8.175,0,0,0-3.068,1.427,13.4,13.4,0,0,0,.071,1.356,7.515,7.515,0,0,1,3.282-1.712c.285-.071.713-.143,1.142-.285a13.413,13.413,0,0,1,.928,2.711l-5.137,1.07.214,1.07,5.137-1.07a11.734,11.734,0,0,1,.143,2.783l-4.352.714a1.658,1.658,0,0,0,1.142.856h0l3.068-.5a.9.9,0,0,1-.071.428c.357,0,.714-.071,1.07-.071,0-.143.071-.357.071-.5l5.779-.928v.785c.357-.071.714-.071,1.142-.143v-.785l6.493-1.07c0,.214-.071.5-.071.714l1.07-.214c0-.214.071-.428.071-.642l3.782-.642A13.187,13.187,0,0,0,330,191.2l-5.637.928a27.5,27.5,0,0,0-.143-3.5l5.423-1.142c.214,1.213.357,2.426.5,3.639a7.79,7.79,0,0,0,.928-1.213c-.143-.856-.214-1.784-.357-2.64l1.142-.214A3.821,3.821,0,0,0,331.854,185.78Zm-23.189,1.855c1.5-.357,3.425-.856,5.565-1.427a21.621,21.621,0,0,1,.856,3.068l-5.494,1.142A12.711,12.711,0,0,0,308.665,187.635Zm1.356,6.636a18.517,18.517,0,0,0-.214-2.854l5.494-1.142a22.461,22.461,0,0,1,.357,3.068Zm5.28-8.348c2.283-.571,4.78-1.213,7.135-1.855a24.189,24.189,0,0,1,.714,3.425l-6.992,1.427A17.406,17.406,0,0,0,315.3,185.923Zm1.5,7.206a25.406,25.406,0,0,0-.428-3.139l6.921-1.427a28.072,28.072,0,0,1,.143,3.5Zm7.42-5.779a27.57,27.57,0,0,0-.714-3.5c1.926-.5,3.782-.928,5.351-1.356.285,1.213.5,2.5.714,3.71Z" transform="translate(-301.846 -180.214)"/></g><path class="i" d="M302.668,188.448s-2.426-1-.714-2.711c1.784-1.712,19.835-5.708,23.26-5.637s5.351,2.569,6.065,5.423-.928,5.851-4.566,7.278-19.05,3.5-21.476,3.139C302.882,195.511,302.668,188.448,302.668,188.448Z" transform="translate(-301.343 -180.099)"/></g><path class="j" d="M297,191.442l1.712,6.636,4.709-.642a5.758,5.758,0,0,0-2.069-6.636Z" transform="translate(-297 -183.165)"/></g><path class="g" d="M290.236,188.115s-7.777-9.275-8.776-8.919c-1.07.357-7.064.713-7.848,1.5-.785.714.785,3,.785,3a12.548,12.548,0,0,0-.571,2.783c0,1,1.427,2,1.427,2a12.3,12.3,0,0,0,.143,2.569c.214.714.642.928.785,1.356s-.071,2.283,1.142,2.711a6.236,6.236,0,0,0,3.5.357c.856-.285,1.641-.5,1.641-.5s3.639.785,5.209.5c1.5-.285,4.352-.714,4.352-.714Z" transform="translate(-273.392 -179.186)"/><g class="x"><path class="l" d="M288.831,200.931c.785-.143,2-.357,2.925-.5-1.356.143-3.425.285-4.638-.285-2-.856-4.424-2.212-6.85-1.356a15.811,15.811,0,0,0-2.569,1.142,1.194,1.194,0,0,0,.785.642,6.236,6.236,0,0,0,3.5.357c.856-.285,1.641-.5,1.641-.5S287.332,201.288,288.831,200.931Z" transform="translate(-274.626 -184.725)"/></g><path class="i" d="M290.236,188.115s-7.777-9.275-8.776-8.919c-1.07.357-7.064.713-7.848,1.5-.785.714.785,3,.785,3a12.548,12.548,0,0,0-.571,2.783c0,1,1.427,2,1.427,2a12.3,12.3,0,0,0,.143,2.569c.214.714.642.928.785,1.356s-.071,2.283,1.142,2.711a6.236,6.236,0,0,0,3.5.357c.856-.285,1.641-.5,1.641-.5s3.639.785,5.209.5c1.5-.285,4.352-.714,4.352-.714Z" transform="translate(-273.392 -179.186)"/><line class="j" y1="0.428" x2="7.064" transform="translate(0.933 4.006)"/><line class="j" y1="0.571" x2="6.992" transform="translate(1.789 8.643)"/><line class="j" y1="0.856" x2="5.922" transform="translate(2.717 12.282)"/></g><g transform="translate(0 28.22)"><g transform="translate(0 10.522)"><path class="g" d="M203.349,210.939s2-1.712-.143-2.783-20.62.5-23.9,1.57-4.352,4.067-4.21,6.992,2.64,5.28,6.493,5.565,19.264-2.355,21.4-3.425C205.2,217.717,203.349,210.939,203.349,210.939Z" transform="translate(-175.083 -207.798)"/><g class="y"><path class="e" d="M203.683,218.331a2.725,2.725,0,0,0,.428-1.142l-5.708.928c0-.785,0-1.641.071-2.426l5.708-.785a5.508,5.508,0,0,0-.143-1.07l-5.494.785c.143-.928.357-1.855.571-2.711l4.424-.357a4.706,4.706,0,0,0-.143-.642,5.2,5.2,0,0,0,.428-.5l-4.281.357a7.679,7.679,0,0,1,2.14-3c-.428,0-.928-.071-1.5-.071a10.732,10.732,0,0,0-1.855,3.139l-5.779.5a22.4,22.4,0,0,1,1.5-3.5c-.428,0-.856.071-1.213.071a17.729,17.729,0,0,0-1.427,3.567l-6.279.571a31.186,31.186,0,0,1,.856-3.5c-.428.071-.785.071-1.142.143a29.609,29.609,0,0,0-.785,3.425l-4.709.428a20.33,20.33,0,0,1,1.5-3.282,8.836,8.836,0,0,0-1.356.357,15.275,15.275,0,0,0-1.213,3.068l-2.426.214a5.346,5.346,0,0,0-.357,1.142l2.5-.214a13.644,13.644,0,0,0-.285,3.853l-2.212.285c.143.357.285.714.428,1l1.855-.285a14.314,14.314,0,0,0,.785,2.711,8.055,8.055,0,0,0,2.426.714l3.139-.5c0,.214.071.357.071.571.357,0,.714-.071,1.07-.071,0-.214-.071-.428-.071-.642l5.922-1a4.023,4.023,0,0,0,.285.856,5.508,5.508,0,0,1,1.07-.143c-.071-.285-.214-.571-.285-.856l5.137-.856a3.474,3.474,0,0,0,.071.856l1.07-.214a3.473,3.473,0,0,0-.071-.856ZM179,213.693l4.923-.428a29.637,29.637,0,0,0-.214,3.5l-5.066.713A12.869,12.869,0,0,1,179,213.693Zm.713,7.563a9.948,9.948,0,0,1-.856-2.711l4.923-.714a17.361,17.361,0,0,0,.214,2.711Zm5.28-.856c-.071-.856-.143-1.784-.214-2.64l5.851-.856a14.755,14.755,0,0,0,.214,2.5Zm5.708-4.638-5.851.856a29.636,29.636,0,0,1,.214-3.5l6.136-.571A16.677,16.677,0,0,0,190.7,215.763Zm6.564,2.569-5.351.856a15.4,15.4,0,0,1-.214-2.5l5.637-.785C197.333,216.69,197.262,217.546,197.262,218.331Zm.214-3.5-5.708.856a19.683,19.683,0,0,1,.5-3.068l5.779-.5A13.927,13.927,0,0,0,197.476,214.835Z" transform="translate(-175.202 -207.77)"/></g><path class="i" d="M203.349,210.939s2-1.712-.143-2.783-20.62.5-23.9,1.57-4.352,4.067-4.21,6.992,2.64,5.28,6.493,5.565,19.264-2.355,21.4-3.425C205.2,217.717,203.349,210.939,203.349,210.939Z" transform="translate(-175.083 -207.798)"/><path class="j" d="M218.381,210.2l.285,6.85-4.638.785a5.858,5.858,0,0,1,0-6.992Z" transform="translate(-185.905 -208.486)"/></g><g transform="translate(32.476)"><path class="g" d="M220.6,205.287s4.638-11.2,5.708-11.2,6.992-1.427,7.92-.928.143,3.068.143,3.068a17.159,17.159,0,0,1,1.427,2.5c.285.928-.785,2.355-.785,2.355a10.824,10.824,0,0,1,.642,2.5c0,.785-.285,1.07-.285,1.57s.785,2.14-.285,2.925A6.512,6.512,0,0,1,231.8,209.5H230.09s-3.282,1.855-4.78,2c-1.57.143-4.352.642-4.352.642Z" transform="translate(-220.6 -193.051)"/><g class="z"><path class="l" d="M230.19,214.839H231.9a6.775,6.775,0,0,0,3.282-1.427,1.781,1.781,0,0,0,.571-1.712,8.377,8.377,0,0,1-3.211,1.284c-2.426.428-5.066.642-7.278,1.784a36.593,36.593,0,0,0-4.067,2.711c.571-.071,2.854-.5,4.21-.571A20.245,20.245,0,0,0,230.19,214.839Z" transform="translate(-220.772 -198.394)"/></g><path class="i" d="M220.6,205.287s4.638-11.2,5.708-11.2,6.992-1.427,7.92-.928.143,3.068.143,3.068a17.159,17.159,0,0,1,1.427,2.5c.285.928-.785,2.355-.785,2.355a10.824,10.824,0,0,1,.642,2.5c0,.785-.285,1.07-.285,1.57s.785,2.14-.285,2.925A6.512,6.512,0,0,1,231.8,209.5H230.09s-3.282,1.855-4.78,2c-1.57.143-4.352.642-4.352.642Z" transform="translate(-220.6 -193.051)"/><line class="j" x1="6.778" y2="1.712" transform="translate(6.992 3.245)"/><line class="j" x1="6.85" y2="1.57" transform="translate(7.563 8.026)"/><line class="j" x1="5.851" y2="0.928" transform="translate(8.847 12.093)"/></g></g></g></g></g></svg>