<svg xmlns="http://www.w3.org/2000/svg" xmlns:xlink="http://www.w3.org/1999/xlink" width="18.038" height="18.034" viewBox="0 0 18.038 18.034">
  <defs>
    <linearGradient id="linear-gradient" x1="0.5" x2="0.5" y2="1" gradientUnits="objectBoundingBox">
      <stop offset="0" stop-color="#ff802c"/>
      <stop offset="1" stop-color="#ffb02c"/>
    </linearGradient>
  </defs>
  <g id="notes" transform="translate(-0.001 -0.074)">
    <path id="Path_106" data-name="Path 106" d="M12.523,18.109a.906.906,0,0,0,.872-.667l.831-3.1,3.148-.841a.9.9,0,0,0,.636-1.1L16.377,6.311l.129-.481a.9.9,0,0,0-.544-1.07l-.735-2.743a.908.908,0,0,0-1.1-.638L8.755,2.819l-4.5-1.207a.884.884,0,0,0-.558.03L2.571.52A1.5,1.5,0,1,0,.446,2.644L2.5,4.694.04,13.86a.9.9,0,0,0,.636,1.105l11.613,3.112a.884.884,0,0,0,.234.031Zm4.9-5.56a.3.3,0,0,1-.21.367l-2.811.751,1.659-6.195ZM14.277,1.96a.3.3,0,0,1,.37.214l.641,2.395L9.916,3.129ZM9.107,9.182,7.59,8.676,8.6,7.664l.506,1.517ZM7.884,7.533l-2.55-2.55a.3.3,0,1,0-.425.425l2.55,2.55-.425.425L2.784,4.132l.425-.425.85.85a.3.3,0,0,0,.425-.425l-.85-.85.425-.425,4.25,4.251ZM1.934,3.282,3.209,2.007l.425.425L2.359,3.707ZM.607,1.582A.9.9,0,0,1,2.146.944l.638.638L1.509,2.857.871,2.219a.9.9,0,0,1-.264-.637ZM.621,14.018,2.987,5.185,6.822,9.02a.3.3,0,0,0,.111.068s0,0,.007,0l1.98.661a.6.6,0,0,0,.192.03A.6.6,0,0,0,9.43,9.69l3.456.928a.288.288,0,0,0,.078.01.3.3,0,0,0,.078-.591l-3.336-.9a.622.622,0,0,0-.028-.15l-.661-1.98s0,0,0-.007a.3.3,0,0,0-.068-.11L4.3,2.247,15.711,5.3a.3.3,0,0,1,.213.369l-3.11,11.612a.3.3,0,0,1-.369.213L.834,14.387a.3.3,0,0,1-.213-.368Zm0,0" transform="translate(0 0)" fill="url(#linear-gradient)"/>
    <path id="Path_107" data-name="Path 107" d="M269.027,152.882a.3.3,0,0,0,.078-.591l-4.275-1.145a.3.3,0,1,0-.156.58l4.275,1.146A.3.3,0,0,0,269.027,152.882Zm0,0" transform="translate(-255.129 -145.738)" fill="url(#linear-gradient)"/>
    <path id="Path_108" data-name="Path 108" d="M293.34,212.436a.3.3,0,0,0,.078-.591l-2.906-.777a.3.3,0,1,0-.155.581l2.906.778A.3.3,0,0,0,293.34,212.436Zm0,0" transform="translate(-279.908 -203.55)" fill="url(#linear-gradient)"/>
    <path id="Path_109" data-name="Path 109" d="M83.588,261.6l-.872-.233a.3.3,0,1,0-.156.58l.872.234a.306.306,0,0,0,.078.01.3.3,0,0,0,.078-.591Zm0,0" transform="translate(-79.43 -252.075)" fill="url(#linear-gradient)"/>
    <path id="Path_110" data-name="Path 110" d="M164.526,283.581a.3.3,0,0,0-.212-.368l-6.677-1.789a.3.3,0,0,0-.155.579l6.677,1.789a.292.292,0,0,0,.078.01A.3.3,0,0,0,164.526,283.581Zm0,0" transform="translate(-151.738 -271.436)" fill="url(#linear-gradient)"/>
    <path id="Path_111" data-name="Path 111" d="M70.542,311.106l-.872-.234a.3.3,0,0,0-.155.581l.872.233a.286.286,0,0,0,.078.01.3.3,0,0,0,.078-.591Zm0,0" transform="translate(-66.852 -299.842)" fill="url(#linear-gradient)"/>
    <path id="Path_112" data-name="Path 112" d="M150.3,332.476l-6.677-1.789a.3.3,0,1,0-.156.58l6.677,1.789a.294.294,0,0,0,.078.011.3.3,0,0,0,.077-.591Zm0,0" transform="translate(-138.191 -318.956)" fill="url(#linear-gradient)"/>
  </g>
</svg>
