<svg xmlns="http://www.w3.org/2000/svg" xmlns:xlink="http://www.w3.org/1999/xlink" width="18.45" height="15.107" viewBox="0 0 18.45 15.107">
  <defs>
    <linearGradient id="linear-gradient" x1="0.5" x2="0.5" y2="1" gradientUnits="objectBoundingBox">
      <stop offset="0" stop-color="#ff802c"/>
      <stop offset="1" stop-color="#ffb02c"/>
    </linearGradient>
  </defs>
  <g id="open-magazine" transform="translate(0 -42.126)">
    <path id="Path_103" data-name="Path 103" d="M225.6,133.8v-8.886a.3.3,0,0,0-.6,0V133.8a.3.3,0,0,0,.6,0Z" transform="translate(-216.073 -79.221)" fill="url(#linear-gradient)"/>
    <path id="Path_104" data-name="Path 104" d="M18.152,43.461a7.721,7.721,0,0,1-2.243-.559,10.775,10.775,0,0,0-3.478-.777,3.555,3.555,0,0,0-3.206,1.721,3.555,3.555,0,0,0-3.206-1.721,10.775,10.775,0,0,0-3.478.777A7.723,7.723,0,0,1,.3,43.461a.3.3,0,0,0-.3.3V55.745a.3.3,0,0,0,.3.3,8.07,8.07,0,0,0,2.438-.592,10.323,10.323,0,0,1,3.283-.744,3.031,3.031,0,0,1,2.342.958.3.3,0,1,0,.439-.4,3.627,3.627,0,0,0-2.782-1.152,10.775,10.775,0,0,0-3.478.777A9.93,9.93,0,0,1,.6,55.43V44.042a9.842,9.842,0,0,0,2.14-.577,10.323,10.323,0,0,1,3.283-.744,2.936,2.936,0,0,1,2.922,1.9.3.3,0,0,0,.569,0,2.964,2.964,0,0,1,2.922-1.9,10.323,10.323,0,0,1,3.283.744,9.84,9.84,0,0,0,2.14.577V55.43a9.933,9.933,0,0,1-1.945-.541,10.775,10.775,0,0,0-3.478-.777,3.626,3.626,0,0,0-2.782,1.152.3.3,0,0,0,.439.4,3.03,3.03,0,0,1,2.342-.958,10.323,10.323,0,0,1,3.283.744,8.07,8.07,0,0,0,2.438.592.3.3,0,0,0,.3-.3V43.759A.3.3,0,0,0,18.152,43.461Z" fill="url(#linear-gradient)"/>
    <path id="Path_105" data-name="Path 105" d="M18.152,375.553a7.721,7.721,0,0,1-2.243-.559,10.775,10.775,0,0,0-3.478-.777,3.646,3.646,0,0,0-2.69,1.055H8.709a3.646,3.646,0,0,0-2.69-1.055,10.775,10.775,0,0,0-3.478.777,7.721,7.721,0,0,1-2.243.559.3.3,0,1,0,0,.6,8.07,8.07,0,0,0,2.438-.592,10.323,10.323,0,0,1,3.283-.744,3.031,3.031,0,0,1,2.342.958.3.3,0,0,0,.22.1H9.869a.3.3,0,0,0,.22-.1,3.03,3.03,0,0,1,2.342-.958,10.323,10.323,0,0,1,3.283.744,8.07,8.07,0,0,0,2.438.592.3.3,0,0,0,0-.6Z" transform="translate(0 -318.916)" fill="url(#linear-gradient)"/>
  </g>
</svg>
