<svg xmlns="http://www.w3.org/2000/svg" width="16.945" height="17.01" viewBox="0 0 16.945 17.01">
  <g id="phone_1_" data-name="phone (1)" transform="translate(-0.912)">
    <path id="Path_269" data-name="Path 269" d="M4.346,11.307a18.046,18.046,0,0,0,6,4.7A9.342,9.342,0,0,0,13.707,17c.081,0,.159.007.24.007a2.782,2.782,0,0,0,2.157-.927.077.077,0,0,0,.014-.018,9.081,9.081,0,0,1,.68-.7c.166-.159.335-.324.5-.493a1.7,1.7,0,0,0-.007-2.534L15.17,10.214a1.715,1.715,0,0,0-1.241-.571,1.772,1.772,0,0,0-1.255.567l-1.262,1.262c-.116-.067-.236-.127-.349-.183a4.358,4.358,0,0,1-.388-.211,13.354,13.354,0,0,1-3.19-2.9,7.69,7.69,0,0,1-1.079-1.72c.331-.3.641-.613.941-.92.106-.109.215-.219.324-.328a1.807,1.807,0,0,0,.585-1.269,1.793,1.793,0,0,0-.585-1.269l-1.05-1.05c-.123-.123-.24-.243-.36-.367-.233-.24-.476-.486-.715-.708A1.757,1.757,0,0,0,4.307,0,1.809,1.809,0,0,0,3.052.546L1.734,1.864A2.708,2.708,0,0,0,.927,3.6a6.523,6.523,0,0,0,.49,2.82A16.4,16.4,0,0,0,4.346,11.307ZM1.787,3.673a1.864,1.864,0,0,1,.56-1.2L3.658,1.163a.949.949,0,0,1,.649-.3.9.9,0,0,1,.634.307c.236.219.458.448.7.691.12.123.243.247.367.374l1.05,1.05a.957.957,0,0,1,.331.659.957.957,0,0,1-.331.659c-.109.109-.219.222-.328.331-.328.331-.634.645-.973.945L5.738,5.9a.689.689,0,0,0-.176.782c0,.011.007.018.011.028A8.3,8.3,0,0,0,6.809,8.72a14.094,14.094,0,0,0,3.4,3.095,5.045,5.045,0,0,0,.465.254,4.359,4.359,0,0,1,.388.211l.039.021a.737.737,0,0,0,.342.088.748.748,0,0,0,.525-.24l1.318-1.318a.933.933,0,0,1,.645-.314.885.885,0,0,1,.624.314l2.125,2.122a.85.85,0,0,1-.011,1.329c-.148.159-.3.31-.469.469a10.15,10.15,0,0,0-.737.765,1.935,1.935,0,0,1-1.512.641c-.06,0-.123,0-.183-.007a8.487,8.487,0,0,1-3.038-.909,17.143,17.143,0,0,1-5.713-4.476A15.7,15.7,0,0,1,2.231,6.129,5.685,5.685,0,0,1,1.787,3.673Z" transform="translate(0)" fill="#25a053"/>
  </g>
</svg>
