<svg xmlns="http://www.w3.org/2000/svg" xmlns:xlink="http://www.w3.org/1999/xlink" width="25.947" height="21.06" viewBox="0 0 25.947 21.06">
  <defs>
    <linearGradient id="linear-gradient" x1="0.5" x2="0.5" y2="1" gradientUnits="objectBoundingBox">
      <stop offset="0" stop-color="#ff802c"/>
      <stop offset="1" stop-color="#ffb02c"/>
    </linearGradient>
  </defs>
  <g id="photo-camera_3_" data-name="photo-camera (3)" transform="translate(0 -46.15)">
    <g id="Group_213" data-name="Group 213" transform="translate(0 46.15)">
      <path id="Path_133" data-name="Path 133" d="M0,52.594V64.043A3.168,3.168,0,0,0,3.167,67.21H22.781a3.168,3.168,0,0,0,3.167-3.167V52.594a3.015,3.015,0,0,0-3.013-3.013H18.719l-.1-.44a3.849,3.849,0,0,0-3.77-2.992H11.094a3.858,3.858,0,0,0-3.77,2.992l-.1.44H3.013A3.018,3.018,0,0,0,0,52.594Zm7.742-1.716a.645.645,0,0,0,.63-.5l.217-.943a2.561,2.561,0,0,1,2.5-1.986h3.754a2.561,2.561,0,0,1,2.5,1.986l.217.943a.651.651,0,0,0,.63.5h4.729a1.715,1.715,0,0,1,1.716,1.716V64.043a1.869,1.869,0,0,1-1.869,1.869H3.167A1.869,1.869,0,0,1,1.3,64.043V52.594a1.715,1.715,0,0,1,1.716-1.716H7.742Z" transform="translate(0 -46.15)" fill="url(#linear-gradient)"/>
      <circle id="Ellipse_95" data-name="Ellipse 95" cx="0.868" cy="0.868" r="0.868" transform="translate(3.521 6.63)" fill="url(#linear-gradient)"/>
      <path id="Path_134" data-name="Path 134" d="M147.549,186.048A5.449,5.449,0,1,0,142.1,180.6,5.458,5.458,0,0,0,147.549,186.048Zm0-9.6A4.152,4.152,0,1,1,143.4,180.6,4.158,4.158,0,0,1,147.549,176.447Z" transform="translate(-134.575 -168.319)" fill="url(#linear-gradient)"/>
    </g>
  </g>
</svg>
