<svg xmlns="http://www.w3.org/2000/svg" xmlns:xlink="http://www.w3.org/1999/xlink" width="19.001" height="19" viewBox="0 0 19.001 19">
  <defs>
    <linearGradient id="linear-gradient" x1="0.5" x2="0.5" y2="1" gradientUnits="objectBoundingBox">
      <stop offset="0" stop-color="#ff802c"/>
      <stop offset="1" stop-color="#ffb02c"/>
    </linearGradient>
  </defs>
  <g id="question" transform="translate(0 -0.02)">
    <g id="Group_99" data-name="Group 99" transform="translate(0 10.93)">
      <g id="Group_98" data-name="Group 98">
        <path id="Path_57" data-name="Path 57" d="M19,295.347a1.427,1.427,0,0,0-2.4-.965l-3.064,2.853a1.334,1.334,0,0,0-1.012-1.339l-3.742-.95a3.577,3.577,0,0,0-1.987.065l-2.587.84v-.744a.371.371,0,0,0-.371-.371H.371a.371.371,0,0,0-.371.371v6.61a.371.371,0,0,0,.371.371H3.838a.371.371,0,0,0,.371-.371v-5.086l2.816-.914a2.836,2.836,0,0,1,1.576-.052l3.742.95a.6.6,0,0,1-.148,1.184H9.587a.371.371,0,1,0,0,.742h.8l.042,0h1.84a2.412,2.412,0,0,0,1.649-.649l3.19-2.971a.685.685,0,1,1,.934,1l-4.394,4.091a1.627,1.627,0,0,1-1.112.438H6.784a.371.371,0,1,0,0,.742h5.751a2.367,2.367,0,0,0,1.618-.637l4.394-4.091A1.423,1.423,0,0,0,19,295.347Zm-15.532,6H.742v-5.868H3.467v5.868Z" transform="translate(0 -293.999)" fill="url(#linear-gradient)"/>
      </g>
    </g>
    <g id="Group_101" data-name="Group 101" transform="translate(4.915 17.387)">
      <g id="Group_100" data-name="Group 100">
        <path id="Path_58" data-name="Path 58" d="M133.074,468.092a.371.371,0,1,0,.109.262A.374.374,0,0,0,133.074,468.092Z" transform="translate(-132.44 -467.983)" fill="url(#linear-gradient)"/>
      </g>
    </g>
    <g id="Group_103" data-name="Group 103" transform="translate(1.734 17.004)">
      <g id="Group_102" data-name="Group 102">
        <path id="Path_59" data-name="Path 59" d="M47.35,457.763a.37.37,0,1,0,.109.262A.373.373,0,0,0,47.35,457.763Z" transform="translate(-46.717 -457.654)" fill="url(#linear-gradient)"/>
      </g>
    </g>
    <g id="Group_105" data-name="Group 105" transform="translate(6.16 0.02)">
      <g id="Group_104" data-name="Group 104">
        <path id="Path_60" data-name="Path 60" d="M169.327.02a3.344,3.344,0,0,0-3.34,3.34,1.113,1.113,0,0,0,2.227,0,1.113,1.113,0,1,1,1.113,1.113,1.115,1.115,0,0,0-1.113,1.113v1.6a1.113,1.113,0,1,0,2.227,0V6.509A3.34,3.34,0,0,0,169.327.02Zm.649,5.855a.371.371,0,0,0-.278.359v.947a.371.371,0,1,1-.742,0v-1.6a.372.372,0,0,1,.371-.371,1.855,1.855,0,1,0-1.855-1.855.371.371,0,1,1-.742,0,2.6,2.6,0,1,1,3.247,2.516Z" transform="translate(-165.987 -0.02)" fill="url(#linear-gradient)"/>
      </g>
    </g>
    <g id="Group_107" data-name="Group 107" transform="translate(8.387 9.154)">
      <g id="Group_106" data-name="Group 106">
        <path id="Path_61" data-name="Path 61" d="M227.884,246.455a1.113,1.113,0,1,0,.326.787A1.119,1.119,0,0,0,227.884,246.455Zm-.525,1.049a.371.371,0,0,1-.633-.262.373.373,0,0,1,.109-.263.371.371,0,1,1,.524.525Z" transform="translate(-225.983 -246.128)" fill="url(#linear-gradient)"/>
      </g>
    </g>
    <g id="Group_109" data-name="Group 109" transform="translate(1.734 13.175)">
      <g id="Group_108" data-name="Group 108">
        <path id="Path_62" data-name="Path 62" d="M47.083,354.49a.371.371,0,0,0-.371.371v2.357a.371.371,0,1,0,.742,0v-2.357A.371.371,0,0,0,47.083,354.49Z" transform="translate(-46.712 -354.49)" fill="url(#linear-gradient)"/>
      </g>
    </g>
  </g>
</svg>
