<svg xmlns="http://www.w3.org/2000/svg" xmlns:xlink="http://www.w3.org/1999/xlink" width="18.699" height="18.698" viewBox="0 0 18.699 18.698">
  <defs>
    <linearGradient id="linear-gradient" x1="0.5" x2="0.5" y2="1" gradientUnits="objectBoundingBox">
      <stop offset="0" stop-color="#ff802c"/>
      <stop offset="1" stop-color="#ffb02c"/>
    </linearGradient>
  </defs>
  <g id="recommendation" transform="translate(0 -0.5)">
    <path id="Path_73" data-name="Path 73" d="M15.894.5H2.8A2.808,2.808,0,0,0,0,3.3v9.973a2.808,2.808,0,0,0,2.8,2.8h.786L2.515,18.771a.312.312,0,0,0,.424.4l6.482-3.085h6.473a2.808,2.808,0,0,0,2.8-2.8V3.3a2.808,2.808,0,0,0-2.8-2.8Zm2.182,12.777a2.184,2.184,0,0,1-2.182,2.182H9.349a.313.313,0,0,0-.134.031L3.39,18.264l.951-2.377a.312.312,0,0,0-.29-.428H2.8A2.184,2.184,0,0,1,.623,13.277V3.3A2.184,2.184,0,0,1,2.8,1.123H15.894A2.184,2.184,0,0,1,18.075,3.3Zm0,0" fill="url(#linear-gradient)"/>
    <path id="Path_74" data-name="Path 74" d="M103.415,58.524h-2.758a.312.312,0,0,1-.3-.215l-.852-2.623a.935.935,0,0,0-1.779,0l-.852,2.623a.312.312,0,0,1-.3.215H93.824a.935.935,0,0,0-.55,1.691l2.231,1.621a.311.311,0,0,1,.114.349l-.852,2.623a.935.935,0,0,0,1.439,1.045l2.231-1.621a.312.312,0,0,1,.366,0l2.231,1.621a.935.935,0,0,0,1.439-1.045l-.852-2.623a.312.312,0,0,1,.114-.348l2.231-1.621a.935.935,0,0,0-.55-1.691Zm.183,1.187-2.231,1.62a.932.932,0,0,0-.34,1.045L101.879,65a.312.312,0,0,1-.479.349l-2.231-1.62a.933.933,0,0,0-1.1,0l-2.231,1.62A.312.312,0,0,1,95.359,65l.852-2.622a.932.932,0,0,0-.34-1.045l-2.231-1.621a.312.312,0,0,1,.183-.565h2.758a.932.932,0,0,0,.889-.646l.852-2.623a.312.312,0,0,1,.592,0l.852,2.623a.932.932,0,0,0,.89.646h2.758a.312.312,0,0,1,.183.564Zm0,0" transform="translate(-89.27 -52.414)" fill="url(#linear-gradient)"/>
  </g>
</svg>
