<svg xmlns="http://www.w3.org/2000/svg" xmlns:xlink="http://www.w3.org/1999/xlink" width="15.836" height="14.083" viewBox="0 0 15.836 14.083">
  <defs>
    <linearGradient id="linear-gradient" x1="0.5" x2="0.5" y2="1" gradientUnits="objectBoundingBox">
      <stop offset="0" stop-color="#ff802c"/>
      <stop offset="1" stop-color="#ffb02c"/>
    </linearGradient>
  </defs>
  <g id="scheduling" transform="translate(0 -28.331)">
    <path id="Path_290" data-name="Path 290" d="M56.213,236.874a.232.232,0,0,0,.232-.232v-4.211a.232.232,0,0,0-.232-.232h-.9a.232.232,0,0,0,0,.464h.668v3.979A.232.232,0,0,0,56.213,236.874Z" transform="translate(-53.377 -197.562)" fill="url(#linear-gradient)"/>
    <path id="Path_291" data-name="Path 291" d="M140.426,231.06a.226.226,0,0,0,0-.023l.021-.163a.228.228,0,0,0,0-.029,1.31,1.31,0,0,0-2.595-.254.232.232,0,1,0,.455.089.846.846,0,0,1,1.675.15l-.017.135a2.538,2.538,0,0,1-.409.823c-.67.957-1.07,1.481-1.285,1.763-.249.325-.308.4-.263.547a.254.254,0,0,0,.166.167,4.265,4.265,0,0,0,.882.029c.315,0,.747,0,1.34-.01a.232.232,0,1,0-.006-.464c-.638.008-1.335.012-1.746.008.218-.285.621-.814,1.292-1.773a2.962,2.962,0,0,0,.484-.995Z" transform="translate(-133.59 -194.98)" fill="url(#linear-gradient)"/>
    <path id="Path_292" data-name="Path 292" d="M15.758,33.031c-.025-.436-.056-.874-.094-1.3-.031-.358-.065-.713-.1-1.053a1.527,1.527,0,0,0-1.4-1.358c-.286-.022-.571-.043-.85-.062v-.033a.89.89,0,0,0-1.778-.068c-2.4-.11-4.837-.11-7.241,0a.89.89,0,0,0-1.778.068v.033c-.279.019-.564.04-.85.062A1.527,1.527,0,0,0,.274,30.675c-.037.341-.072.695-.1,1.053-.037.429-.069.867-.094,1.3a46.968,46.968,0,0,0,.05,6.187.232.232,0,0,0,.231.215H.377a.232.232,0,0,0,.214-.249,46.5,46.5,0,0,1-.05-6.125q.008-.138.017-.276h12.2a.232.232,0,0,0,0-.464H.591c.014-.184.028-.368.044-.55.03-.355.065-.706.1-1.043a1.063,1.063,0,0,1,.97-.946c.274-.021.547-.042.814-.06v.774a.89.89,0,1,0,1.781,0v-.875c2.4-.11,4.834-.11,7.236,0v.875a.89.89,0,1,0,1.781,0v-.774c.267.018.54.038.814.06a1.063,1.063,0,0,1,.97.946c.037.337.071.688.1,1.043.016.182.03.365.044.55h-1.43a.232.232,0,1,0,0,.464h1.462q.009.138.017.276a46.577,46.577,0,0,1-.194,7.7,1.063,1.063,0,0,1-.97.946,79.267,79.267,0,0,1-12.425,0,1.063,1.063,0,0,1-.97-.946c-.024-.226-.047-.45-.067-.665a.232.232,0,1,0-.462.043c.02.217.043.443.068.672a1.527,1.527,0,0,0,1.395,1.358c2.073.164,4.161.245,6.249.245s4.176-.082,6.249-.245a1.527,1.527,0,0,0,1.395-1.358,47.035,47.035,0,0,0,.2-7.78ZM3.837,30.493a.426.426,0,1,1-.853,0V29.221a.426.426,0,1,1,.853,0Zm9.016,0a.426.426,0,1,1-.853,0V29.221a.426.426,0,1,1,.853,0v1.272Z" transform="translate(0)" fill="url(#linear-gradient)"/>
    <path id="Path_293" data-name="Path 293" d="M281.991,229.327h4.691a.232.232,0,0,0,0-.464h-4.691a.232.232,0,1,0,0,.464Z" transform="translate(-273.043 -194.329)" fill="url(#linear-gradient)"/>
    <path id="Path_294" data-name="Path 294" d="M281.991,266.9h4.691a.232.232,0,0,0,0-.464h-4.691a.232.232,0,1,0,0,.464Z" transform="translate(-273.043 -230.744)" fill="url(#linear-gradient)"/>
    <path id="Path_295" data-name="Path 295" d="M281.991,304.482h4.691a.232.232,0,0,0,0-.464h-4.691a.232.232,0,1,0,0,.464Z" transform="translate(-273.043 -267.159)" fill="url(#linear-gradient)"/>
    <path id="Path_296" data-name="Path 296" d="M281.991,342.059h4.691a.232.232,0,0,0,0-.464h-4.691a.232.232,0,0,0,0,.464Z" transform="translate(-273.043 -303.574)" fill="url(#linear-gradient)"/>
    <path id="Path_297" data-name="Path 297" d="M281.991,379.636h4.691a.232.232,0,0,0,0-.464h-4.691a.232.232,0,0,0,0,.464Z" transform="translate(-273.043 -339.989)" fill="url(#linear-gradient)"/>
  </g>
</svg>
