<svg xmlns="http://www.w3.org/2000/svg" width="22.956" height="17.216" viewBox="0 0 22.956 17.216">
  <g id="share" transform="translate(0 -64.004)">
    <g id="Group_502" data-name="Group 502" transform="translate(0 64.004)">
      <g id="Group_501" data-name="Group 501" transform="translate(0 0)">
        <path id="Path_301" data-name="Path 301" d="M124.673,69.858l-6.7-5.739a.478.478,0,0,0-.789.363v3.354c-5.344.149-7.922,2.794-9.147,5.023a11.612,11.612,0,0,0-1.359,4.644q-.015.181-.015.368h0s0,0,0,0h0v0h0a.478.478,0,0,0,.953-.059h0c0-.024,0-.084,0-.174.209-3.977,7.556-4.879,9.56-5.051V75.96a.478.478,0,0,0,.789.363l6.7-5.739a.477.477,0,0,0,0-.725Zm-6.528,5.062V72.134a.479.479,0,0,0-.478-.478h-.022c-.337.015-6.375.326-9.349,2.884.984-2.6,3.406-5.754,9.369-5.754h0a.478.478,0,0,0,.478-.478V65.522l5.483,4.7Z" transform="translate(-101.884 -64.005)" fill="#fff"/>
        <path id="Path_302" data-name="Path 302" d="M19.608,156.22a.478.478,0,0,0-.478.478v4.108a.958.958,0,0,1-.956.956H1.913a.958.958,0,0,1-.956-.956v-9.565a.958.958,0,0,1,.956-.956H8.536a.478.478,0,0,0,0-.957H1.913A1.915,1.915,0,0,0,0,151.241v9.565a1.915,1.915,0,0,0,1.913,1.913h16.26a1.915,1.915,0,0,0,1.913-1.913V156.7A.478.478,0,0,0,19.608,156.22Z" transform="translate(0 -145.502)" fill="#fff"/>
      </g>
    </g>
  </g>
</svg>
