<svg xmlns="http://www.w3.org/2000/svg" xmlns:xlink="http://www.w3.org/1999/xlink" width="12.286" height="14.725" viewBox="0 0 12.286 14.725">
  <defs>
    <linearGradient id="linear-gradient" x1="0.5" x2="0.5" y2="1" gradientUnits="objectBoundingBox">
      <stop offset="0" stop-color="#ff802c"/>
      <stop offset="1" stop-color="#ffb02c"/>
    </linearGradient>
  </defs>
  <path id="student" d="M12.068,13a.218.218,0,0,0,.218-.218v-.136a2.549,2.549,0,0,0-1.861-2.449L8.039,9.532,7.407,8.9V7.963a2.96,2.96,0,0,0,1.611-2.01h.291a.8.8,0,0,0,.8-.8V4.748a.8.8,0,0,0-.261-.59V.435h.988V2.559a.741.741,0,0,0,0,1.416v.541a.218.218,0,1,0,.436,0V3.975a.741.741,0,0,0,0-1.416V.435h.218a.218.218,0,0,0,0-.436H.8A.218.218,0,1,0,.8.435H2.44V.872a.218.218,0,0,0,.436,0V.435H9.411V2.991H2.876v-1.1a.218.218,0,1,0-.436,0V4.158a.8.8,0,0,0-.261.59v.407a.8.8,0,0,0,.8.8h.291A2.959,2.959,0,0,0,4.88,7.963V8.9l-.633.633-2.385.663A2.549,2.549,0,0,0,0,12.643v.136a.218.218,0,0,0,.436,0v-.136a2.111,2.111,0,0,1,1.542-2.029l1.436-.4.807,2.557a.219.219,0,0,0,.05.085L5.635,14.29H2.643v-.683a.218.218,0,0,0-.436,0v.683H.436v-.5a.218.218,0,0,0-.436,0v.713a.218.218,0,0,0,.218.218h11.85a.218.218,0,0,0,.218-.218v-.713a.218.218,0,1,0-.436,0v.5H10.079v-.683a.218.218,0,0,0-.436,0v.683H6.651l1.363-1.433a.218.218,0,0,0,.05-.085l.807-2.557,1.437.4a2.111,2.111,0,0,1,1.542,2.029v.136a.218.218,0,0,0,.218.218ZM11.052,3.572a.305.305,0,1,1,.3-.305A.305.305,0,0,1,11.052,3.572ZM5.77,12.024h.746l.293,1.467-.667.7-.667-.7Zm.826-.436h-.9l-.368-.425.821-.821.821.821Zm.595-.815-.739-.739L7.189,9.3l.452.452ZM9.672,5.155a.363.363,0,0,1-.363.363H9.091V4.385h.218a.364.364,0,0,1,.363.363Zm-.261-1.2a.8.8,0,0,0-.1-.007H9.091V3.427h.32ZM2.876,3.427H3.2V3.95H2.977a.8.8,0,0,0-.1.007ZM3.2,5.518H2.977a.364.364,0,0,1-.363-.363V4.748a.364.364,0,0,1,.363-.363H3.2ZM3.631,5.3V3.427H8.655V5.3a2.512,2.512,0,1,1-5.025,0ZM6.143,8.248a2.941,2.941,0,0,0,.828-.118V8.9l-.828.828L5.315,8.9V8.13A2.937,2.937,0,0,0,6.143,8.248ZM5.1,9.3l.738.738-.739.739L4.645,9.749Zm-1.263.8.435-.121.555,1.262a.22.22,0,0,0,.012.023l0,.006.01.014.006.007,0,.006.5.573L5.109,13.1l-.487-.512Zm3.83,2.495-.487.512-.247-1.237.5-.573,0-.006.006-.007.01-.014,0-.006a.24.24,0,0,0,.012-.023l.555-1.262.435.121Zm0,0" transform="translate(0 0)" fill="url(#linear-gradient)"/>
</svg>
