<svg xmlns="http://www.w3.org/2000/svg" xmlns:xlink="http://www.w3.org/1999/xlink" width="16.171" height="16.171" viewBox="0 0 16.171 16.171">
  <defs>
    <linearGradient id="linear-gradient" x1="0.5" x2="0.5" y2="1" gradientUnits="objectBoundingBox">
      <stop offset="0" stop-color="#ff802c"/>
      <stop offset="1" stop-color="#ffb02c"/>
    </linearGradient>
  </defs>
  <g id="university" transform="translate(-1 -1)">
    <path id="Path_285" data-name="Path 285" d="M11.955,1H11.8l-.073.141A24.8,24.8,0,0,1,9.479,4.684L9.256,4.46a1.113,1.113,0,0,0-1.09-.278A1.112,1.112,0,0,0,7.2,3.608H6.8a1.112,1.112,0,0,0-.967.574,1.113,1.113,0,0,0-1.09.278l-.282.282a1.112,1.112,0,0,0-.278,1.09,1.112,1.112,0,0,0-.575.967v.4a1.083,1.083,0,0,0,.064.36l-2.536.974,1.385.693-.364,1.453,2.323-1.4.2.2a24.856,24.856,0,0,1-3.545,2.242L1,11.8v.159a5.222,5.222,0,0,0,5.216,5.216h.159l.073-.141A24.629,24.629,0,0,1,17.03,6.448l.141-.073V6.216A5.222,5.222,0,0,0,11.955,1Zm4.683,4.942a4.694,4.694,0,0,1-4.408-4.408A4.7,4.7,0,0,1,16.637,5.942Zm-6.779,2.5a1.1,1.1,0,0,0-.043-.28A1.112,1.112,0,0,0,10.39,7.2V6.8a1.111,1.111,0,0,0-.574-.967,1.119,1.119,0,0,0-.026-.691,25.314,25.314,0,0,0,1.983-3.008A5.221,5.221,0,0,0,16.033,6.4a25.256,25.256,0,0,0-4.765,3.458ZM4.13,6.8a.586.586,0,0,1,.457-.569l.364-.081-.2-.315a.586.586,0,0,1,.079-.725l.282-.282a.587.587,0,0,1,.725-.079l.315.2.081-.364A.586.586,0,0,1,6.8,4.13h.4a.586.586,0,0,1,.569.457l.081.364.315-.2a.587.587,0,0,1,.725.079l.282.282a.586.586,0,0,1,.079.725l-.2.315.364.081a.586.586,0,0,1,.457.569v.4a.586.586,0,0,1-.457.569l-.364.081.2.315a.586.586,0,0,1-.079.725l-.282.282a.586.586,0,0,1-.725.079l-.315-.2-.081.364a.586.586,0,0,1-.568.457H6.8a.586.586,0,0,1-.569-.457l-.081-.364-.315.2a.586.586,0,0,1-.725-.079l-.282-.282a.586.586,0,0,1-.079-.725l.2-.315-.364-.081A.586.586,0,0,1,4.13,7.2Zm1.032,3a1.122,1.122,0,0,0,.67.02,1.106,1.106,0,0,0,.16.219L5.4,11.57l-.351-.7-.633.158ZM2.428,8.6l1.535-.59a1.109,1.109,0,0,0,.219.16,1.116,1.116,0,0,0,.019.67l-1.23.743.158-.633ZM6.06,16.647a4.7,4.7,0,0,1-4.536-4.536A25.4,25.4,0,0,0,4.1,10.548l-.78,1.291,1.454-.363.693,1.385.974-2.535a1.081,1.081,0,0,0,.36.064h.4a1.112,1.112,0,0,0,.967-.574,1.121,1.121,0,0,0,.28.042l1.411,1.411a25.306,25.306,0,0,0-3.8,5.379Zm4.156-5.756L9.033,9.707a1.079,1.079,0,0,0,.223-.17l.282-.282a1.078,1.078,0,0,0,.17-.223l1.183,1.183Q10.547,10.547,10.216,10.891Z" transform="translate(0)" fill="url(#linear-gradient)"/>
    <path id="Path_286" data-name="Path 286" d="M18.826,20.652A1.826,1.826,0,1,0,17,18.826,1.828,1.828,0,0,0,18.826,20.652Zm0-3.13a1.3,1.3,0,1,1-1.3,1.3A1.306,1.306,0,0,1,18.826,17.522Z" transform="translate(-11.827 -11.827)" fill="url(#linear-gradient)"/>
    <path id="Path_287" data-name="Path 287" d="M40.61,11.741l-.438-.283q-.14.217-.284.431l.432.291Q40.468,11.963,40.61,11.741Z" transform="translate(-28.745 -7.73)" fill="url(#linear-gradient)"/>
    <path id="Path_288" data-name="Path 288" d="M38.339,15.044l-.427-.3q-.148.211-.3.419l.42.309Q38.188,15.26,38.339,15.044Z" transform="translate(-27.062 -10.16)" fill="url(#linear-gradient)"/>
    <path id="Path_289" data-name="Path 289" d="M25.938,43.379q-.21.265-.413.535l.417.313q.2-.265.4-.525Z" transform="translate(-18.128 -31.326)" fill="url(#linear-gradient)"/>
    <path id="Path_290" data-name="Path 290" d="M23.346,46.913l.429.3q.186-.268.378-.53l-.42-.309Q23.536,46.641,23.346,46.913Z" transform="translate(-16.518 -33.539)" fill="url(#linear-gradient)"/>
    <path id="Path_291" data-name="Path 291" d="M11.5,51.336a3.668,3.668,0,0,1-1.969-1.128l-.387.35a4.183,4.183,0,0,0,2.453,1.326l.18.028.088-.159c.382-.691.8-1.371,1.238-2.02l-.432-.292C12.253,50.05,11.86,50.688,11.5,51.336Z" transform="translate(-6.017 -35.805)" fill="url(#linear-gradient)"/>
  </g>
</svg>
