<svg xmlns="http://www.w3.org/2000/svg" xmlns:xlink="http://www.w3.org/1999/xlink" width="14.08" height="15.998" viewBox="0 0 14.08 15.998"><defs><style>.a{fill-rule:evenodd;fill:url(#a);}</style><linearGradient id="a" x1="0.5" x2="0.5" y2="1" gradientUnits="objectBoundingBox"><stop offset="0" stop-color="#ff802c"/><stop offset="1" stop-color="#ffb02c"/></linearGradient></defs><g transform="translate(0 0)"><path class="a" d="M13.767,6.458H3.106l10.24-2.966a.313.313,0,0,0,.213-.387l-.536-1.85A1.749,1.749,0,0,0,11.35,0a1.731,1.731,0,0,0-.481.068L1.255,2.854A1.743,1.743,0,0,0,.069,5.008L.592,6.815V14.26A1.741,1.741,0,0,0,2.331,16H6.086a.312.312,0,0,0,0-.625H2.331A1.115,1.115,0,0,1,1.217,14.26V10.007H13.454V14.26a1.115,1.115,0,0,1-1.114,1.114H8.586a.312.312,0,0,0,0,.625H12.34a1.741,1.741,0,0,0,1.739-1.739V6.771a.312.312,0,0,0-.312-.312ZM8.257,9.382l1.328-2.3h1.727l-1.328,2.3Zm-2.448,0,1.328-2.3H8.863l-1.328,2.3Zm-2.448,0,1.328-2.3H6.415l-1.328,2.3ZM4.522,5.337,2.3,3.2,3.965,2.72a.31.31,0,0,0,.041.048L6.229,4.9l-1.666.482a.311.311,0,0,0-.041-.048ZM8.709,1.405,10.932,3.54l-1.666.482a.3.3,0,0,0-.041-.048L7,1.839l1.666-.482A.31.31,0,0,0,8.709,1.405Zm-2.352.681L8.58,4.222,6.915,4.7a.3.3,0,0,0-.041-.048L4.651,2.521l1.666-.482A.33.33,0,0,0,6.357,2.087ZM11.043.669A1.1,1.1,0,0,1,11.35.625a1.121,1.121,0,0,1,1.073.8l.449,1.55-1.254.363a.318.318,0,0,0-.041-.048L9.354,1.158ZM.765,3.987a1.106,1.106,0,0,1,.664-.533L1.613,3.4a.318.318,0,0,0,.041.048L3.877,5.584l-2.759.8L.669,4.834a1.106,1.106,0,0,1,.1-.847Zm.452,3.1H3.966l-1.328,2.3H1.217Zm9.488,2.3,1.328-2.3h1.421v2.3Zm0,0" transform="translate(0)"/><path class="a" d="M199.437,346.289a.312.312,0,0,0-.156-.271l-2.745-1.585a.312.312,0,0,0-.469.271v3.17a.312.312,0,0,0,.469.27l2.745-1.585a.312.312,0,0,0,.156-.271Zm-2.745,1.044v-2.087l1.808,1.044Zm0,0" transform="translate(-189.94 -333.63)"/><path class="a" d="M225.085,492a.312.312,0,1,0,.312.313A.313.313,0,0,0,225.085,492Zm0,0" transform="translate(-217.75 -476.626)"/></g></svg>