<svg xmlns="http://www.w3.org/2000/svg" xmlns:xlink="http://www.w3.org/1999/xlink" width="18.43" height="18.426" viewBox="0 0 18.43 18.426">
  <defs>
    <linearGradient id="linear-gradient" x1="0.5" x2="0.5" y2="1" gradientUnits="objectBoundingBox">
      <stop offset="0" stop-color="#ff802c"/>
      <stop offset="1" stop-color="#ffb02c"/>
    </linearGradient>
  </defs>
  <g id="world" transform="translate(0 -0.05)">
    <g id="Group_411" data-name="Group 411" transform="translate(0 0.05)">
      <path id="Path_267" data-name="Path 267" d="M9.218.05A9.213,9.213,0,0,0,.748,5.637l-.115.038.045.134A9.213,9.213,0,1,0,9.218.05Zm7.227,13.858-.473-.473v-1.1a.307.307,0,0,0-.031-.137L14.744,9.8V8.649a.307.307,0,0,0-.137-.256l-.921-.614a.307.307,0,0,0-.246-.042l-1.128.282-1.9-.813-.261-1.827.723-.722H12.43l.522.785a.307.307,0,0,0,.205.132L15,5.881a.3.3,0,0,0,.147-.012l1.7-.566A8.568,8.568,0,0,1,16.445,13.908ZM15.178,3.076l-.5.333-1.392-.279-.9-.3a.3.3,0,0,0-.171-.007l-1.142.285-.5-.167.371-.742H11.98a.307.307,0,0,0,.137-.032l1.063-.531A8.631,8.631,0,0,1,15.178,3.076ZM5.852,1.35l.737.491a.307.307,0,0,0,.12.047L8.2,2.137l-.145.435-.775.259a.307.307,0,0,0-.166.133l-.882,1.47-1.417.85-2.088.3a.307.307,0,0,0-.264.3v.921a.307.307,0,0,0,.09.217l.524.524v.528L1.8,7.223l-.463-1.39A8.648,8.648,0,0,1,5.852,1.35ZM4.978,11.419l-1.388-.278-.516-1.029V9.39L4.218,8.246l.424.847a.307.307,0,0,0,.275.17H6.892l.832,1.387a.307.307,0,0,0,.263.149h.854l-.215,1.077L7.463,13.038a.307.307,0,0,0-.09.217v.768l-1.106.829a.307.307,0,0,0-.123.246v1.109l-.382-.127-.539-1.349V11.72A.307.307,0,0,0,4.978,11.419ZM4.054,16.14A8.6,8.6,0,0,1,.992,6.752l.255.765a.307.307,0,0,0,.121.158L2.9,8.7l-.349.349a.307.307,0,0,0-.09.217v.921a.307.307,0,0,0,.032.137l.614,1.228a.307.307,0,0,0,.215.164l1.29.258v2.82a.307.307,0,0,0,.022.114l.614,1.536a.307.307,0,0,0,.188.177l.921.307a.3.3,0,0,0,.1.016.307.307,0,0,0,.307-.307V15.252l1.106-.829a.307.307,0,0,0,.123-.246v-.794l1.138-1.138a.307.307,0,0,0,.084-.157l.307-1.536a.307.307,0,0,0-.3-.367H8.161L7.329,8.8a.307.307,0,0,0-.263-.149H5.106L4.578,7.59a.307.307,0,0,0-.226-.166.3.3,0,0,0-.266.086l-.4.4V7.421A.307.307,0,0,0,3.6,7.2l-.524-.524V6.151L4.96,5.882a.309.309,0,0,0,.115-.041L6.61,4.92a.307.307,0,0,0,.105-.105l.863-1.438.814-.271a.3.3,0,0,0,.194-.194l.307-.921a.307.307,0,0,0-.241-.4l-1.778-.3-.312-.208a8.575,8.575,0,0,1,5.906.22l-.561.28H10.751a.307.307,0,0,0-.276.17L9.861,2.984a.307.307,0,0,0,.178.428l.921.307a.3.3,0,0,0,.171.007l1.142-.285.837.279a.226.226,0,0,0,.037.01l1.536.307a.3.3,0,0,0,.231-.045l.7-.466a8.664,8.664,0,0,1,.924,1.234l-1.511.5L13.388,4.99l-.541-.811a.307.307,0,0,0-.254-.137H10.751a.307.307,0,0,0-.217.09l-.921.921a.307.307,0,0,0-.087.261l.307,2.15a.307.307,0,0,0,.184.239l2.15.921a.3.3,0,0,0,.2.016l1.1-.274.67.448V9.877a.307.307,0,0,0,.031.137l1.2,2.392v1.156a.307.307,0,0,0,.09.217l.642.643A8.6,8.6,0,0,1,4.054,16.14Z" transform="translate(0 -0.05)" fill="url(#linear-gradient)"/>
    </g>
  </g>
</svg>
