<svg id="XMLID_700_" xmlns="http://www.w3.org/2000/svg" xmlns:xlink="http://www.w3.org/1999/xlink" width="14.322" height="14.322" viewBox="0 0 14.322 14.322">
  <defs>
    <linearGradient id="linear-gradient" x1="0.5" x2="0.5" y2="1" gradientUnits="objectBoundingBox">
      <stop offset="0" stop-color="#ff802c"/>
      <stop offset="1" stop-color="#ffb02c"/>
    </linearGradient>
  </defs>
  <g id="XMLID_684_">
    <g id="XMLID_685_">
      <path id="XMLID_699_" d="M452.28,152.559a.28.28,0,1,0-.2-.082A.282.282,0,0,0,452.28,152.559Z" transform="translate(-439.357 -147.748)" fill="url(#linear-gradient)"/>
      <path id="XMLID_698_" d="M186.635,443.667h0a.28.28,0,0,0,0,.559h0a.28.28,0,1,0,0-.559Z" transform="translate(-181.138 -431.257)" fill="url(#linear-gradient)"/>
      <path id="XMLID_691_" d="M14.322,11.233V1.958a.84.84,0,0,0-.839-.839h-.958V.951a.951.951,0,1,0-1.9,0v.168H8.108V.951a.951.951,0,1,0-1.9,0v.168H3.692V.951a.951.951,0,0,0-1.9,0v.168H.839A.84.84,0,0,0,0,1.958V13.482a.84.84,0,0,0,.839.839H11.233a.279.279,0,0,0,.2-.082h0l2.809-2.809h0A.279.279,0,0,0,14.322,11.233ZM11.182.951a.392.392,0,1,1,.783,0V2.322a.392.392,0,0,1-.783,0Zm-4.416,0a.392.392,0,1,1,.783,0V2.322a.392.392,0,1,1-.783,0ZM2.35.951a.392.392,0,1,1,.783,0V2.322a.392.392,0,0,1-.783,0ZM.559,13.482V12.97H4.378a.28.28,0,0,0,0-.559H.559v-7.6H11.8a.28.28,0,1,0,0-.559H.559V1.958a.28.28,0,0,1,.28-.28H1.79v.643a.951.951,0,0,0,1.9,0V1.678H6.206v.643a.951.951,0,1,0,1.9,0V1.678h2.514v.643a.951.951,0,1,0,1.9,0V1.678h.958a.28.28,0,0,1,.28.28v9H11.793a.84.84,0,0,0-.839.839v1.969H.839A.28.28,0,0,1,.559,13.482Zm10.954-.116V11.793a.28.28,0,0,1,.28-.28h1.574Z" fill="url(#linear-gradient)"/>
      <path id="XMLID_690_" d="M125.3,264.476v-1.931a.546.546,0,0,0-.545-.545h-1.212a.28.28,0,1,0,0,.559h1.2v.671h-1.2a.28.28,0,1,0,0,.559h1.2v.671h-1.2a.28.28,0,0,0,0,.559h1.212A.546.546,0,0,0,125.3,264.476Z" transform="translate(-119.813 -254.671)" fill="url(#linear-gradient)"/>
      <path id="XMLID_687_" d="M221.817,262.559a.28.28,0,0,0,0-.559h-1.212a.546.546,0,0,0-.545.545v1.931a.546.546,0,0,0,.545.545h.946a.546.546,0,0,0,.545-.545v-.7a.546.546,0,0,0-.545-.545h-.932v-.671Zm-.677,1.231h.4v.671h-.917v-.671Z" transform="translate(-213.904 -254.671)" fill="url(#linear-gradient)"/>
      <path id="XMLID_686_" d="M318.351,263.231h-.932v-.671h1.2a.28.28,0,0,0,0-.559h-1.212a.546.546,0,0,0-.545.545v.7a.546.546,0,0,0,.545.545h.932v.671h-1.2a.28.28,0,0,0,0,.559h1.212a.546.546,0,0,0,.545-.545v-.7A.546.546,0,0,0,318.351,263.231Z" transform="translate(-307.997 -254.671)" fill="url(#linear-gradient)"/>
    </g>
  </g>
</svg>
